<svg width="69" height="75" viewBox="0 0 69 75" fill="none" xmlns="http://www.w3.org/2000/svg">
<path d="M40.9884 75H27.0349C8.09302 75 0 66.907 0 47.9651V27.0349C0 8.09302 8.09302 0 27.0349 0H40.9884C59.9302 0 68.0233 8.09302 68.0233 27.0349V47.9651C68.0233 66.907 59.9302 75 40.9884 75ZM27.0349 5.23256C10.9535 5.23256 5.23256 10.9535 5.23256 27.0349V47.9651C5.23256 64.0465 10.9535 69.7674 27.0349 69.7674H40.9884C57.0698 69.7674 62.7907 64.0465 62.7907 47.9651V27.0349C62.7907 10.9535 57.0698 5.23256 40.9884 5.23256H27.0349Z" fill="white"/>
<path d="M44.4768 33.4185H23.5466C19.221 33.4185 15.6978 29.8952 15.6978 25.5696V22.0813C15.6978 17.7557 19.221 14.2324 23.5466 14.2324H44.4768C48.8024 14.2324 52.3257 17.7557 52.3257 22.0813V25.5696C52.3257 29.8952 48.8024 33.4185 44.4768 33.4185ZM23.5466 19.465C22.1164 19.465 20.9303 20.651 20.9303 22.0813V25.5696C20.9303 26.9999 22.1164 28.1859 23.5466 28.1859H44.4768C45.9071 28.1859 47.0931 26.9999 47.0931 25.5696V22.0813C47.0931 20.651 45.9071 19.465 44.4768 19.465H23.5466Z" fill="white"/>
<path d="M20.5819 47.6869C20.1284 47.6869 19.6749 47.5822 19.2563 47.4078C18.8377 47.2334 18.454 46.9892 18.14 46.6752C17.4773 46.0124 17.1284 45.1403 17.1284 44.1985C17.1284 43.745 17.1982 43.2915 17.3726 42.8729C17.547 42.4194 17.7912 42.0706 18.14 41.7217C18.2796 41.5822 18.454 41.4078 18.6633 41.3031C18.8377 41.1636 19.047 41.0589 19.2563 40.9892C19.4656 40.8845 19.7098 40.8148 19.9191 40.7799C21.0354 40.5357 22.2563 40.9194 23.0587 41.7217C23.3726 42.0357 23.6517 42.4194 23.8261 42.8729C24.0005 43.2915 24.1052 43.745 24.1052 44.1985C24.1052 45.1403 23.7214 46.0124 23.0587 46.6752C22.3959 47.338 21.5238 47.6869 20.5819 47.6869Z" fill="white"/>
<path d="M34.5706 47.6857C33.6288 47.6857 32.7567 47.3369 32.0939 46.6741C31.4311 46.0113 31.0823 45.1392 31.0823 44.1974C31.0823 43.7439 31.152 43.2904 31.3265 42.8718C31.5009 42.4183 31.7451 42.0694 32.0939 41.7206C32.2334 41.5811 32.4079 41.4067 32.6172 41.302C32.7916 41.1625 33.0009 41.0578 33.2102 40.9881C33.4195 40.8834 33.6637 40.8136 33.873 40.7788C34.5358 40.6392 35.2334 40.709 35.8962 40.9881C36.3148 41.1625 36.6986 41.4067 37.0125 41.7206C37.3265 42.0694 37.6055 42.4183 37.78 42.8718C37.9544 43.2904 38.059 43.7439 38.059 44.1974C38.059 45.1392 37.6753 46.0113 37.0125 46.6741C36.3497 47.3369 35.4776 47.6857 34.5706 47.6857Z" fill="white"/>
<path d="M48.4891 47.6861C48.0356 47.6861 47.5822 47.5814 47.1636 47.407C46.7449 47.2326 46.3612 46.9884 46.0473 46.6744C45.6984 46.3256 45.4542 45.9419 45.2798 45.5233C45.1054 45.1047 45.0356 44.6512 45.0356 44.1977C45.0356 43.7442 45.1054 43.2907 45.2798 42.8721C45.4542 42.4186 45.6984 42.0698 46.0473 41.721C47.338 40.4303 49.6752 40.4303 50.9659 41.721C51.6287 42.3837 52.0124 43.2907 52.0124 44.1977C52.0124 45.1396 51.6287 46.0117 50.9659 46.6744C50.338 47.3023 49.4659 47.6861 48.4891 47.6861Z" fill="white"/>
<path d="M20.6177 61.6394C19.6759 61.6394 18.8038 61.2906 18.141 60.6278C17.4782 59.965 17.0945 59.0929 17.0945 58.151C17.0945 57.2441 17.4782 56.3371 18.141 55.6743C18.2805 55.5348 18.4898 55.3603 18.6642 55.2557C18.8387 55.1161 19.048 55.0115 19.2573 54.9417C19.4666 54.8371 19.7108 54.7673 19.9201 54.7324C21.0712 54.5231 22.2573 54.872 23.0596 55.6743C23.234 55.8487 23.3736 56.0231 23.5131 56.1975C23.6177 56.4068 23.7224 56.6161 23.827 56.8255C23.8968 57.0348 23.9666 57.2441 24.0363 57.4534C24.0712 57.6975 24.1061 57.9069 24.1061 58.151C24.1061 59.0929 23.7224 59.965 23.0596 60.6278C22.3968 61.2906 21.5247 61.6394 20.6177 61.6394Z" fill="white"/>
<path d="M34.5711 61.6394C33.6292 61.6394 32.7572 61.2906 32.0944 60.6278C31.4316 59.965 31.0479 59.0929 31.0479 58.151C31.0479 57.2441 31.4316 56.3371 32.0944 55.6743C32.8967 54.872 34.1176 54.5231 35.2339 54.7324C35.4432 54.7673 35.6874 54.8371 35.8967 54.9417C36.106 55.0115 36.3153 55.1161 36.4897 55.2557C36.6641 55.3603 36.8386 55.5348 37.013 55.6743C37.6758 56.3371 38.0246 57.2441 38.0246 58.151C38.0246 59.0929 37.6758 59.965 37.013 60.6278C36.3502 61.2906 35.4781 61.6394 34.5711 61.6394Z" fill="white"/>
<path d="M48.4891 61.64C47.5822 61.64 46.7101 61.2911 46.0473 60.6284C45.3845 59.9656 45.0356 59.0935 45.0356 58.1516C45.0356 57.2446 45.3845 56.3377 46.0473 55.6749C46.3612 55.3609 46.7449 55.1167 47.1636 54.9423C48.4542 54.4191 50.024 54.6981 50.9659 55.6749C51.6287 56.3377 51.9775 57.2446 51.9775 58.1516C51.9775 59.0935 51.6287 59.9656 50.9659 60.6284C50.6519 60.9423 50.2682 61.1865 49.8496 61.3609C49.431 61.5353 48.9775 61.64 48.4891 61.64Z" fill="white"/>
</svg>
