<svg width="91" height="72" viewBox="0 0 91 72" fill="none" xmlns="http://www.w3.org/2000/svg">
<path d="M9.93985 32.4241C9.07991 32.4241 8.25519 32.0824 7.64712 31.4744C7.03905 30.8663 6.69744 30.0416 6.69744 29.1817V8.4951L4.91412 9.37055C4.53208 9.60044 4.10673 9.74905 3.66465 9.80712C3.22257 9.86518 2.77327 9.83145 2.34482 9.70802C1.91637 9.58459 1.51798 9.37411 1.17455 9.08976C0.831121 8.8054 0.550029 8.45327 0.348842 8.05536C0.147655 7.65746 0.0306955 7.22233 0.00527441 6.77719C-0.0201467 6.33204 0.0465163 5.88643 0.201097 5.46821C0.355678 5.04999 0.594855 4.66814 0.903681 4.34654C1.21251 4.02493 1.58434 3.77047 1.99596 3.59907L8.48077 0.356665C8.97436 0.10794 9.52334 -0.0104792 10.0756 0.0126533C10.6278 0.0357858 11.165 0.199702 11.636 0.488835C12.1071 0.777968 12.4964 1.18272 12.767 1.66465C13.0376 2.14658 13.1806 2.68969 13.1823 3.24241V29.1817C13.1823 30.0416 12.8406 30.8663 12.2326 31.4744C11.6245 32.0824 10.7998 32.4241 9.93985 32.4241ZM45.6063 68.0905V42.1513C45.6046 41.5986 45.4617 41.0555 45.1911 40.5735C44.9205 40.0916 44.5311 39.6868 44.0601 39.3977C43.589 39.1086 43.0519 38.9447 42.4996 38.9215C41.9474 38.8984 41.3984 39.0168 40.9048 39.2655L34.42 42.5079C34.0084 42.6793 33.6366 42.9338 33.3277 43.2554C33.0189 43.577 32.7797 43.9589 32.6252 44.3771C32.4706 44.7953 32.4039 45.2409 32.4293 45.6861C32.4548 46.1312 32.5717 46.5663 32.7729 46.9642C32.9741 47.3621 33.2552 47.7143 33.5986 47.9986C33.942 48.283 34.3404 48.4935 34.7689 48.6169C35.1973 48.7403 35.6466 48.7741 36.0887 48.716C36.5308 48.6579 36.9561 48.5093 37.3382 48.2794L39.1215 47.404V68.0905C39.1215 68.9505 39.4631 69.7752 40.0712 70.3833C40.6793 70.9913 41.504 71.3329 42.3639 71.3329C43.2238 71.3329 44.0486 70.9913 44.6566 70.3833C45.2647 69.7752 45.6063 68.9505 45.6063 68.0905ZM65.0608 58.3633V42.1513C65.0591 41.5986 64.9161 41.0555 64.6455 40.5735C64.3749 40.0916 63.9856 39.6868 63.5145 39.3977C63.0434 39.1086 62.5063 38.9447 61.9541 38.9215C61.4018 38.8984 60.8528 39.0168 60.3593 39.2655L53.8744 42.5079C53.173 42.93 52.6571 43.6019 52.4305 44.3886C52.2038 45.1753 52.2832 46.0186 52.6526 46.7492C53.022 47.4798 53.6541 48.0436 54.4221 48.3275C55.19 48.6113 56.0368 48.5941 56.7926 48.2794L58.5759 47.404V58.3633C58.5759 59.2232 58.9175 60.048 59.5256 60.656C60.1337 61.2641 60.9584 61.6057 61.8183 61.6057C62.6783 61.6057 63.503 61.2641 64.1111 60.656C64.7191 60.048 65.0608 59.2232 65.0608 58.3633ZM58.5759 29.1817V3.24241C58.5743 2.68969 58.4313 2.14658 58.1607 1.66465C57.8901 1.18272 57.5007 0.777968 57.0297 0.488835C56.5586 0.199702 56.0215 0.0357858 55.4692 0.0126533C54.917 -0.0104792 54.368 0.10794 53.8744 0.356665L47.3896 3.59907C46.6881 4.02117 46.1723 4.69301 45.9457 5.47971C45.719 6.26641 45.7984 7.10973 46.1678 7.84034C46.5372 8.57095 47.1693 9.13478 47.9372 9.41861C48.7052 9.70244 49.552 9.68528 50.3078 9.37055L52.0911 8.4951V29.1817C52.0911 30.0416 52.4327 30.8663 53.0408 31.4744C53.6489 32.0824 54.4736 32.4241 55.3335 32.4241C56.1935 32.4241 57.0182 32.0824 57.6263 31.4744C58.2343 30.8663 58.5759 30.0416 58.5759 29.1817ZM32.6367 29.1817C32.6367 28.3217 32.2951 27.497 31.687 26.8889C31.0789 26.2809 30.2542 25.9392 29.3943 25.9392C28.5343 25.9392 27.7096 25.5976 27.1016 24.9896C26.4935 24.3815 26.1519 23.5568 26.1519 22.6968V9.72722C26.1519 8.86728 26.4935 8.04256 27.1016 7.43449C27.7096 6.82642 28.5343 6.48481 29.3943 6.48481C30.2542 6.48481 31.0789 6.82642 31.687 7.43449C32.2951 8.04256 32.6367 8.86728 32.6367 9.72722V19.4544C32.6367 20.3144 32.9783 21.1391 33.5864 21.7472C34.1944 22.3552 35.0192 22.6968 35.8791 22.6968C36.739 22.6968 37.5638 22.3552 38.1718 21.7472C38.7799 21.1391 39.1215 20.3144 39.1215 19.4544V9.72722C39.1215 7.1474 38.0967 4.67324 36.2725 2.84904C34.4483 1.02483 31.9741 0 29.3943 0C26.8145 0 24.3403 1.02483 22.5161 2.84904C20.6919 4.67324 19.6671 7.1474 19.6671 9.72722V22.6968C19.6671 25.2767 20.6919 27.7508 22.5161 29.575C24.3403 31.3992 26.8145 32.4241 29.3943 32.4241C30.2542 32.4241 31.0789 32.0824 31.687 31.4744C32.2951 30.8663 32.6367 30.0416 32.6367 29.1817ZM26.1519 61.6057V48.6361C26.1519 46.0563 25.1271 43.5821 23.3028 41.7579C21.4786 39.9337 19.0045 38.9089 16.4247 38.9089C13.8448 38.9089 11.3707 39.9337 9.54648 41.7579C7.72227 43.5821 6.69744 46.0563 6.69744 48.6361V61.6057C6.69744 64.1855 7.72227 66.6597 9.54648 68.4839C11.3707 70.3081 13.8448 71.3329 16.4247 71.3329C19.0045 71.3329 21.4786 70.3081 23.3028 68.4839C25.1271 66.6597 26.1519 64.1855 26.1519 61.6057ZM19.6671 48.6361V61.6057C19.6671 62.4657 19.3255 63.2904 18.7174 63.8984C18.1093 64.5065 17.2846 64.8481 16.4247 64.8481C15.5647 64.8481 14.74 64.5065 14.1319 63.8984C13.5239 63.2904 13.1823 62.4657 13.1823 61.6057V48.6361C13.1823 47.7761 13.5239 46.9514 14.1319 46.3434C14.74 45.7353 15.5647 45.3937 16.4247 45.3937C17.2846 45.3937 18.1093 45.7353 18.7174 46.3434C19.3255 46.9514 19.6671 47.7761 19.6671 48.6361ZM84.5152 22.6968V9.72722C84.5152 7.1474 83.4904 4.67324 81.6662 2.84904C79.8419 1.02483 77.3678 0 74.788 0C72.2082 0 69.734 1.02483 67.9098 2.84904C66.0856 4.67324 65.0608 7.1474 65.0608 9.72722V22.6968C65.0608 25.2767 66.0856 27.7508 67.9098 29.575C69.734 31.3992 72.2082 32.4241 74.788 32.4241C77.3678 32.4241 79.8419 31.3992 81.6662 29.575C83.4904 27.7508 84.5152 25.2767 84.5152 22.6968ZM78.0304 9.72722V22.6968C78.0304 23.5568 77.6888 24.3815 77.0807 24.9896C76.4726 25.5976 75.6479 25.9392 74.788 25.9392C73.928 25.9392 73.1033 25.5976 72.4952 24.9896C71.8872 24.3815 71.5456 23.5568 71.5456 22.6968V9.72722C71.5456 8.86728 71.8872 8.04256 72.4952 7.43449C73.1033 6.82642 73.928 6.48481 74.788 6.48481C75.6479 6.48481 76.4726 6.82642 77.0807 7.43449C77.6888 8.04256 78.0304 8.86728 78.0304 9.72722ZM91 61.6057V48.6361C91 46.0563 89.9752 43.5821 88.151 41.7579C86.3268 39.9337 83.8526 38.9089 81.2728 38.9089C78.693 38.9089 76.2188 39.9337 74.3946 41.7579C72.5704 43.5821 71.5456 46.0563 71.5456 48.6361V61.6057C71.5456 64.1855 72.5704 66.6597 74.3946 68.4839C76.2188 70.3081 78.693 71.3329 81.2728 71.3329C83.8526 71.3329 86.3268 70.3081 88.151 68.4839C89.9752 66.6597 91 64.1855 91 61.6057ZM84.5152 48.6361V61.6057C84.5152 62.4657 84.1736 63.2904 83.5655 63.8984C82.9574 64.5065 82.1327 64.8481 81.2728 64.8481C80.4128 64.8481 79.5881 64.5065 78.98 63.8984C78.372 63.2904 78.0304 62.4657 78.0304 61.6057V48.6361C78.0304 47.7761 78.372 46.9514 78.98 46.3434C79.5881 45.7353 80.4128 45.3937 81.2728 45.3937C82.1327 45.3937 82.9574 45.7353 83.5655 46.3434C84.1736 46.9514 84.5152 47.7761 84.5152 48.6361Z" fill="white"/>
</svg>
