<svg width="75" height="75" viewBox="0 0 75 75" fill="none" xmlns="http://www.w3.org/2000/svg">
<path d="M67.5 0H7.5C5.51088 0 3.60322 0.790176 2.1967 2.1967C0.790176 3.60322 0 5.51088 0 7.5V67.5C0 69.4891 0.790176 71.3968 2.1967 72.8033C3.60322 74.2098 5.51088 75 7.5 75H67.5C69.4891 75 71.3968 74.2098 72.8033 72.8033C74.2098 71.3968 75 69.4891 75 67.5V7.5C75 5.51088 74.2098 3.60322 72.8033 2.1967C71.3968 0.790176 69.4891 0 67.5 0ZM7.5 5H67.5C68.163 5 68.7989 5.26339 69.2678 5.73223C69.7366 6.20107 70 6.83696 70 7.5V15H5V7.5C5 6.83696 5.26339 6.20107 5.73223 5.73223C6.20107 5.26339 6.83696 5 7.5 5ZM67.5 70H7.5C6.83696 70 6.20107 69.7366 5.73223 69.2678C5.26339 68.7989 5 68.163 5 67.5V20H70V67.5C70 68.163 69.7366 68.7989 69.2678 69.2678C68.7989 69.7366 68.163 70 67.5 70Z" fill="white"/>
<path d="M61.2498 12.5H62.4998C63.1629 12.5 63.7988 12.2366 64.2676 11.7678C64.7365 11.2989 64.9998 10.663 64.9998 10C64.9998 9.33696 64.7365 8.70107 64.2676 8.23223C63.7988 7.76339 63.1629 7.5 62.4998 7.5H61.2498C60.5868 7.5 59.9509 7.76339 59.4821 8.23223C59.0132 8.70107 58.7498 9.33696 58.7498 10C58.7498 10.663 59.0132 11.2989 59.4821 11.7678C59.9509 12.2366 60.5868 12.5 61.2498 12.5ZM51.2498 12.5H52.4998C53.1629 12.5 53.7988 12.2366 54.2676 11.7678C54.7365 11.2989 54.9998 10.663 54.9998 10C54.9998 9.33696 54.7365 8.70107 54.2676 8.23223C53.7988 7.76339 53.1629 7.5 52.4998 7.5H51.2498C50.5868 7.5 49.9509 7.76339 49.4821 8.23223C49.0132 8.70107 48.7498 9.33696 48.7498 10C48.7498 10.663 49.0132 11.2989 49.4821 11.7678C49.9509 12.2366 50.5868 12.5 51.2498 12.5ZM24.2748 33.225C24.0424 32.9907 23.7659 32.8047 23.4613 32.6778C23.1566 32.5508 22.8299 32.4855 22.4998 32.4855C22.1698 32.4855 21.8431 32.5508 21.5384 32.6778C21.2338 32.8047 20.9573 32.9907 20.7248 33.225L10.7248 43.225C10.4905 43.4574 10.3045 43.7339 10.1776 44.0386C10.0507 44.3432 9.98535 44.67 9.98535 45C9.98535 45.33 10.0507 45.6568 10.1776 45.9614C10.3045 46.2661 10.4905 46.5426 10.7248 46.775L20.7248 56.775C20.9573 57.0093 21.2338 57.1953 21.5384 57.3222C21.8431 57.4492 22.1698 57.5145 22.4998 57.5145C22.8299 57.5145 23.1566 57.4492 23.4613 57.3222C23.7659 57.1953 24.0424 57.0093 24.2748 56.775C24.5092 56.5426 24.6952 56.2661 24.8221 55.9614C24.949 55.6568 25.0143 55.33 25.0143 55C25.0143 54.67 24.949 54.3432 24.8221 54.0386C24.6952 53.7339 24.5092 53.4574 24.2748 53.225L16.0248 45L24.2748 36.775C24.5092 36.5426 24.6952 36.2661 24.8221 35.9614C24.949 35.6568 25.0143 35.33 25.0143 35C25.0143 34.67 24.949 34.3432 24.8221 34.0386C24.6952 33.7339 24.5092 33.4574 24.2748 33.225ZM54.2748 33.225C53.8041 32.7542 53.1656 32.4898 52.4998 32.4898C51.8341 32.4898 51.1956 32.7542 50.7248 33.225C50.2541 33.6958 49.9896 34.3342 49.9896 35C49.9896 35.6658 50.2541 36.3042 50.7248 36.775L58.9748 45L50.7248 53.225C50.4905 53.4574 50.3045 53.7339 50.1776 54.0386C50.0507 54.3432 49.9854 54.67 49.9854 55C49.9854 55.33 50.0507 55.6568 50.1776 55.9614C50.3045 56.2661 50.4905 56.5426 50.7248 56.775C50.9573 57.0093 51.2338 57.1953 51.5384 57.3222C51.8431 57.4492 52.1698 57.5145 52.4998 57.5145C52.8299 57.5145 53.1566 57.4492 53.4613 57.3222C53.7659 57.1953 54.0424 57.0093 54.2748 56.775L64.2748 46.775C64.5092 46.5426 64.6952 46.2661 64.8221 45.9614C64.949 45.6568 65.0143 45.33 65.0143 45C65.0143 44.67 64.949 44.3432 64.8221 44.0386C64.6952 43.7339 64.5092 43.4574 64.2748 43.225L54.2748 33.225ZM43.2998 27.625C42.988 27.5191 42.6583 27.4759 42.3297 27.4978C42.0011 27.5197 41.6801 27.6063 41.385 27.7527C41.09 27.899 40.8268 28.1022 40.6105 28.3506C40.3943 28.599 40.2292 28.8876 40.1248 29.2L30.1248 59.2C29.9992 59.5191 29.9406 59.8607 29.9527 60.2035C29.9648 60.5462 30.0472 60.8829 30.195 61.1924C30.3427 61.5019 30.5525 61.7777 30.8114 62.0027C31.0703 62.2276 31.3727 62.3969 31.6998 62.5C31.9654 62.5343 32.2343 62.5343 32.4998 62.5C33.024 62.5014 33.5352 62.338 33.9614 62.0329C34.3876 61.7278 34.7071 61.2966 34.8748 60.8L44.8748 30.8C44.9807 30.4882 45.024 30.1585 45.0021 29.8298C44.9802 29.5012 44.8935 29.1802 44.7472 28.8852C44.6008 28.5901 44.3976 28.3269 44.1493 28.1107C43.9009 27.8944 43.6122 27.7294 43.2998 27.625Z" fill="white"/>
</svg>
