<svg width="96" height="75" viewBox="0 0 96 75" fill="none" xmlns="http://www.w3.org/2000/svg">
<path d="M12 15H37.5C38.3295 15 39 14.3295 39 13.5C39 12.6705 38.3295 12 37.5 12H12C11.1705 12 10.5 12.6705 10.5 13.5C10.5 14.3295 11.1705 15 12 15ZM33 19.5C33 18.6705 32.3295 18 31.5 18H15C14.1705 18 13.5 18.6705 13.5 19.5C13.5 20.3295 14.1705 21 15 21H31.5C32.3295 21 33 20.3295 33 19.5ZM30 42.012H15C14.1705 42.012 13.5 42.6825 13.5 43.512C13.5 44.3415 14.1705 45.012 15 45.012H30C30.8295 45.012 31.5 44.3415 31.5 43.512C31.5 42.6825 30.8295 42.012 30 42.012ZM36 19.5C36 20.3295 36.6705 21 37.5 21H42.003C42.8325 21 43.503 20.3295 43.503 19.5C43.503 18.6705 42.8325 18 42.003 18H37.5C36.6705 18 36 18.6705 36 19.5ZM21 47.994H12C11.1705 47.994 10.5 48.6645 10.5 49.494C10.5 50.3235 11.1705 50.994 12 50.994H21C21.8295 50.994 22.5 50.3235 22.5 49.494C22.5 48.6645 21.8295 47.994 21 47.994ZM24 24H18C17.1705 24 16.5 24.6705 16.5 25.5C16.5 26.3295 17.1705 27 18 27H24C24.8295 27 25.5 26.3295 25.5 25.5C25.5 24.6705 24.8295 24 24 24ZM57.012 24H30C29.1705 24 28.5 24.6705 28.5 25.5C28.5 26.3295 29.1705 27 30 27H57.012C57.8415 27 58.512 26.3295 58.512 25.5C58.512 24.6705 57.8415 24 57.012 24ZM36 31.494C36 30.6645 35.3295 29.994 34.5 29.994H18C17.1705 29.994 16.5 30.6645 16.5 31.494C16.5 32.3235 17.1705 32.994 18 32.994H34.5C35.3295 32.994 36 32.3235 36 31.494ZM48.006 35.994H27C26.1705 35.994 25.5 36.6645 25.5 37.494C25.5 38.3235 26.1705 38.994 27 38.994H48.006C48.8355 38.994 49.506 38.3235 49.506 37.494C49.506 36.6645 48.8355 35.994 48.006 35.994ZM18 35.994C17.1705 35.994 16.5 36.6645 16.5 37.494C16.5 38.3235 17.1705 38.994 18 38.994H21C21.8295 38.994 22.5 38.3235 22.5 37.494C22.5 36.6645 21.8295 35.994 21 35.994H18Z" fill="white"/>
<path d="M95.073 48.1125C94.89 48.036 94.695 47.997 94.5 47.997H86.997V31.488C86.997 31.293 86.958 31.098 86.8815 30.915C86.7285 30.5475 86.4375 30.2565 86.07 30.1035C85.887 30.027 85.692 29.988 85.497 29.988H72.003V7.5V4.5C72.003 2.019 69.984 0 67.503 0H4.5C2.019 0 0 2.019 0 4.5V7.5V55.494C0 56.3235 0.6705 56.994 1.5 56.994L50.988 56.997V73.5C50.988 74.3295 51.6585 75 52.488 75H70.494H88.5C88.695 75 88.89 74.961 89.073 74.8845C89.2575 74.808 89.424 74.6985 89.562 74.559L95.559 68.562C95.6985 68.424 95.808 68.2575 95.8845 68.073C95.961 67.89 96 67.695 96 67.5V49.497C96 49.302 95.961 49.107 95.8845 48.924C95.7315 48.5565 95.4405 48.2655 95.073 48.1125ZM93 66.879L90 69.879V56.118L93 53.118V66.879ZM70.494 53.997H62.991V38.994H77.997V53.997H70.494ZM56.109 53.997L59.109 50.997H59.991V53.997H56.109ZM68.118 32.988H70.4295C70.4565 32.9895 70.476 33.003 70.503 33.003C70.53 33.003 70.5495 32.9895 70.5765 32.988H81.8775L78.873 35.994H65.112L68.118 32.988ZM83.997 48.873L80.997 51.873V38.112L83.997 35.1105V48.873ZM86.115 50.997H90.879L87.879 53.997H83.115L86.115 50.997ZM67.494 29.988C67.3425 29.988 67.206 30.0315 67.0695 30.0735C67.023 30.0885 66.9735 30.084 66.927 30.1035C66.7365 30.1815 66.567 30.2955 66.426 30.4395L60.432 36.4335C60.2925 36.5715 60.183 36.738 60.1065 36.9225C60.03 37.1055 59.991 37.3005 59.991 37.4955V47.9985H58.488C58.293 47.9985 58.098 48.0375 57.915 48.114C57.7305 48.1905 57.564 48.3 57.426 48.4395L51.867 53.9985L7.5 53.994V9H69.003V29.988H67.494ZM4.5 3H6.03C5.202 3 4.539 3.6705 4.539 4.5C4.539 5.3295 5.217 6 6.0465 6C6.8745 6 7.5465 5.3295 7.5465 4.5C7.5465 3.6705 6.8745 3 6.0465 3H10.53C9.702 3 9.039 3.6705 9.039 4.5C9.039 5.3295 9.717 6 10.5465 6C11.3745 6 12.0465 5.3295 12.0465 4.5C12.0465 3.6705 11.3745 3 10.5465 3H15.03C14.202 3 13.539 3.6705 13.539 4.5C13.539 5.3295 14.217 6 15.0465 6C15.8745 6 16.5465 5.3295 16.5465 4.5C16.5465 3.6705 15.8745 3 15.0465 3H67.5045C68.3325 3 69.0045 3.672 69.0045 4.5V6H15.045H10.5465H6.0465H3V4.5C3 3.672 3.672 3 4.5 3ZM3 9H4.5V53.994H3V9ZM53.988 56.997H61.491H68.994V72H53.988V56.997ZM71.994 56.997H79.497H87V72H71.994V56.997Z" fill="white"/>
</svg>
