<svg width="74" height="74" viewBox="0 0 74 74" fill="none" xmlns="http://www.w3.org/2000/svg">
<path d="M53.0335 0C43.5368 0 33.9661 2.12133 32.3381 6.16667H3.70014C2.71974 6.16959 1.78033 6.56036 1.08708 7.25361C0.393825 7.94686 0.00306401 8.88627 0.000135963 9.86667V39.4667C0.00306401 40.4471 0.393825 41.3865 1.08708 42.0797C1.78033 42.773 2.71974 43.1637 3.70014 43.1667H4.93347V55.2657L0.0864692 67.377C0.0271077 67.5217 -0.00226305 67.6769 0.000135963 67.8333V71.5333C0.00208799 72.1869 0.262595 72.8132 0.724762 73.2754C1.18693 73.7375 1.8132 73.998 2.4668 74H49.3335C49.9871 73.998 50.6133 73.7375 51.0755 73.2754C51.5377 72.8132 51.7982 72.1869 51.8001 71.5333V67.8333C51.8025 67.6769 51.7732 67.5217 51.7138 67.377L46.8668 55.2657V53.9337C48.9151 54.1521 50.9735 54.2633 53.0335 54.2667C63.4551 54.2667 74.0001 51.726 74.0001 46.8667V7.4C74.0001 2.54067 63.4551 0 53.0335 0ZM2.4668 9.86667C2.4668 9.53957 2.59674 9.22586 2.82804 8.99457C3.05933 8.76327 3.37304 8.63333 3.70014 8.63333H38.2335C38.5606 8.63333 38.8743 8.76327 39.1056 8.99457C39.3369 9.22586 39.4668 9.53957 39.4668 9.86667V16.0333H2.4668V9.86667ZM3.70014 40.7C3.37304 40.7 3.05933 40.5701 2.82804 40.3388C2.59674 40.1075 2.4668 39.7938 2.4668 39.4667V18.5H39.4668V27.1333H32.0668V29.6H43.1668C43.4939 29.6 43.8076 29.7299 44.0389 29.9612C44.2702 30.1925 44.4001 30.5062 44.4001 30.8333V54.2667H7.40014V30.8333C7.40014 30.5062 7.53008 30.1925 7.76137 29.9612C7.99267 29.7299 8.30637 29.6 8.63347 29.6H19.7335V27.1333H8.63347C7.65307 27.1363 6.71366 27.527 6.02041 28.2203C5.32716 28.9135 4.9364 29.8529 4.93347 30.8333V40.7H3.70014ZM49.3335 71.5333H2.4668V69.0667H49.3335V71.5333ZM20.0788 66.6L20.6955 64.1333H31.1048L31.7215 66.6H20.0788ZM48.7415 66.6H34.2621L33.2631 62.604C33.197 62.3366 33.0433 62.099 32.8265 61.9292C32.6097 61.7593 32.3422 61.6669 32.0668 61.6667H19.7335C19.458 61.6669 19.1906 61.7593 18.9738 61.9292C18.757 62.099 18.6032 62.3366 18.5371 62.604L17.5381 66.6H3.0588L7.00547 56.7333H44.7948L48.7415 66.6ZM71.5335 46.8667C71.5335 48.877 64.3308 51.8 53.0335 51.8C50.9735 51.7966 48.9151 51.6855 46.8668 51.467V44.067C48.9151 44.2855 50.9735 44.3966 53.0335 44.4C60.3965 44.4 67.8088 43.1297 71.5335 40.663V46.8667ZM71.5335 37C71.5335 39.0103 64.3308 41.9333 53.0335 41.9333C50.9735 41.9299 48.9151 41.8188 46.8668 41.6003V34.2003C48.9151 34.4188 50.9735 34.5299 53.0335 34.5333C60.3965 34.5333 67.8088 33.263 71.5335 30.7963V37ZM71.5335 27.1333C71.5335 29.1437 64.3308 32.0667 53.0335 32.0667C50.9735 32.0633 48.9151 31.9521 46.8668 31.7337V30.8333C46.8639 29.8529 46.4731 28.9135 45.7799 28.2203C45.0866 27.527 44.1472 27.1363 43.1668 27.1333H41.9335V23.606C45.5889 24.3281 49.3074 24.6834 53.0335 24.6667C60.3965 24.6667 67.8088 23.3963 71.5335 20.9297V27.1333ZM71.5335 17.2667C71.5335 19.277 64.3308 22.2 53.0335 22.2C49.3054 22.2202 45.5854 21.8523 41.9335 21.1023V13.7393C45.5889 14.4615 49.3074 14.8168 53.0335 14.8C60.3965 14.8 67.8088 13.5297 71.5335 11.063V17.2667ZM53.0335 12.3333C49.3054 12.3535 45.5854 11.9857 41.9335 11.2357V9.86667C41.9305 8.88627 41.5398 7.94686 40.8465 7.25361C40.1533 6.56036 39.2139 6.16959 38.2335 6.16667H35.3105C37.4565 4.37833 43.9068 2.46667 53.0335 2.46667C64.3308 2.46667 71.5335 5.38967 71.5335 7.4C71.5335 9.41033 64.3308 12.3333 53.0335 12.3333Z" fill="white"/>
<path d="M66.6 14.8003H69.0667V17.267H66.6V14.8003ZM61.6667 16.0337H64.1334V18.5003H61.6667V16.0337ZM56.7333 17.267H59.2V19.7337H56.7333V17.267ZM66.6 24.667H69.0667V27.1337H66.6V24.667ZM61.6667 25.9003H64.1334V28.367H61.6667V25.9003ZM56.7333 27.1337H59.2V29.6003H56.7333V27.1337ZM66.6 34.5337H69.0667V37.0003H66.6V34.5337ZM61.6667 35.767H64.1334V38.2337H61.6667V35.767ZM56.7333 37.0003H59.2V39.467H56.7333V37.0003ZM66.6 44.4003H69.0667V46.867H66.6V44.4003ZM61.6667 45.6337H64.1334V48.1003H61.6667V45.6337ZM56.7333 46.867H59.2V49.3337H56.7333V46.867ZM45.6334 6.16699H60.4333V8.63366H45.6334V6.16699ZM4.93335 11.1003H7.40002V13.567H4.93335V11.1003ZM9.86668 11.1003H12.3333V13.567H9.86668V11.1003ZM14.8 11.1003H17.2667V13.567H14.8V11.1003ZM31.783 40.6757L29.4767 39.1463C30.3459 38.2358 30.8316 37.0258 30.8333 35.767V34.5337H32.0667V32.067H30.8333C30.8298 30.976 30.4647 29.917 29.7953 29.0556C29.1258 28.1942 28.1897 27.5791 27.1334 27.3063V25.9003H24.6667V27.3063C23.6104 27.5791 22.6742 28.1942 22.0048 29.0556C21.3353 29.917 20.9702 30.976 20.9667 32.067H19.7333V34.5337H20.9667V35.767C20.9684 37.0258 21.4541 38.2358 22.3234 39.1463L20.017 40.6757C19.1706 41.2372 18.4764 41.9997 17.9964 42.895C17.5165 43.7903 17.2658 44.7905 17.2667 45.8063V48.1003C17.2667 48.4274 17.3966 48.7411 17.6279 48.9724C17.8592 49.2037 18.1729 49.3337 18.5 49.3337H33.3C33.6271 49.3337 33.9408 49.2037 34.1721 48.9724C34.4034 48.7411 34.5333 48.4274 34.5333 48.1003V45.8063C34.5342 44.7905 34.2835 43.7903 33.8036 42.895C33.3237 41.9997 32.6295 41.2372 31.783 40.6757ZM27.1334 29.9457C27.5062 30.1609 27.8161 30.4699 28.0325 30.8421C28.2489 31.2142 28.3641 31.6365 28.3667 32.067H27.1334V29.9457ZM24.6667 29.9457V32.067H23.4333C23.4359 31.6365 23.5512 31.2142 23.7675 30.8421C23.9839 30.4699 24.2939 30.1609 24.6667 29.9457ZM23.4333 34.5337H28.3667V35.767C28.3667 36.4212 28.1068 37.0486 27.6442 37.5112C27.1816 37.9738 26.5542 38.2337 25.9 38.2337C25.2458 38.2337 24.6184 37.9738 24.1558 37.5112C23.6932 37.0486 23.4333 36.4212 23.4333 35.767V34.5337ZM27.5033 40.7867L25.9 42.5627L24.2967 40.7867L24.679 40.5277C25.4767 40.7579 26.3233 40.7579 27.121 40.5277L27.5033 40.7867ZM32.0667 46.867H19.7333V45.8063C19.7338 45.1961 19.8848 44.5953 20.1731 44.0575C20.4614 43.5196 20.8781 43.0612 21.386 42.723L22.2247 42.168L24.9874 45.2267C25.1024 45.3547 25.2432 45.4571 25.4004 45.5272C25.5576 45.5973 25.7279 45.6335 25.9 45.6335C26.0722 45.6335 26.2424 45.5973 26.3996 45.5272C26.5569 45.4571 26.6976 45.3547 26.8127 45.2267L29.5753 42.168L30.414 42.723C30.922 43.0612 31.3386 43.5196 31.6269 44.0575C31.9152 44.5953 32.0663 45.1961 32.0667 45.8063V46.867Z" fill="white"/>
</svg>
