<svg width="35" height="35" viewBox="0 0 35 35" fill="none" xmlns="http://www.w3.org/2000/svg">
<path d="M26.8974 10.1649C26.7011 10.1621 26.507 10.1243 26.324 10.0532C26.2358 10.016 26.1511 9.97118 26.0708 9.91913C25.9885 9.86404 25.9112 9.80174 25.84 9.73296C25.5626 9.45097 25.4074 9.07107 25.408 8.67551C25.4068 8.57788 25.4167 8.48042 25.4378 8.38508C25.4537 8.29022 25.4812 8.19767 25.5197 8.10955C25.5567 8.0189 25.6015 7.93169 25.6538 7.84891C25.7096 7.76949 25.7719 7.69477 25.84 7.62551C25.9113 7.55677 25.9885 7.49447 26.0708 7.43934C26.1511 7.38702 26.2358 7.34192 26.324 7.30455C26.4157 7.26713 26.5104 7.23724 26.607 7.21519C26.8469 7.16851 27.0947 7.18152 27.3284 7.25307C27.5621 7.32462 27.7747 7.45252 27.9474 7.62551C28.0173 7.69307 28.0797 7.76797 28.1336 7.84891C28.188 7.93168 28.2353 8.01886 28.2751 8.10955C28.31 8.19896 28.3374 8.29113 28.357 8.38508C28.3741 8.48102 28.3841 8.5781 28.3868 8.67551C28.3874 8.87211 28.3489 9.06688 28.2735 9.24843C28.198 9.42999 28.0872 9.5947 27.9474 9.73296C27.8798 9.80315 27.8047 9.86559 27.7233 9.91913C27.6407 9.97134 27.5538 10.0162 27.4634 10.0532C27.3752 10.0917 27.2827 10.1192 27.1878 10.1351C27.0925 10.1561 26.995 10.1661 26.8974 10.1649ZM17.4995 25.6423C15.889 25.6423 14.3145 25.1647 12.9754 24.2699C11.6363 23.3751 10.5925 22.1033 9.97623 20.6153C9.35992 19.1273 9.19871 17.4899 9.51297 15.9103C9.82723 14.3307 10.6029 12.8797 11.7418 11.7409C12.8807 10.6021 14.3317 9.82664 15.9114 9.51252C17.491 9.19841 19.1283 9.35977 20.6163 9.97622C22.1042 10.5927 23.3759 11.6365 24.2706 12.9757C25.1653 14.3149 25.6428 15.8894 25.6426 17.5C25.6403 19.6589 24.7816 21.7288 23.255 23.2554C21.7283 24.782 19.6585 25.6407 17.4995 25.6431V25.6423ZM17.4995 11.5902C16.3307 11.59 15.188 11.9365 14.216 12.5858C13.2441 13.2351 12.4865 14.158 12.0391 15.2379C11.5917 16.3177 11.4745 17.506 11.7025 18.6525C11.9304 19.7989 12.4932 20.852 13.3197 21.6786C14.1461 22.5051 15.1992 23.0681 16.3456 23.2962C17.492 23.5242 18.6803 23.4073 19.7602 22.96C20.8401 22.5127 21.7631 21.7552 22.4125 20.7834C23.062 19.8115 23.4086 18.6689 23.4086 17.5C23.407 15.9332 22.784 14.4311 21.6762 13.3231C20.5684 12.2152 19.0663 11.592 17.4995 11.5902Z" fill="white"/>
<path d="M14.1961 18.6171C13.8999 18.6171 13.6158 18.4994 13.4063 18.29C13.1968 18.0805 13.0791 17.7964 13.0791 17.5001C13.0802 16.5845 13.3652 15.6918 13.8948 14.9449C14.4244 14.1981 15.1726 13.6338 16.0362 13.3299C16.1753 13.2781 16.3234 13.2546 16.4717 13.2607C16.62 13.2668 16.7656 13.3024 16.8999 13.3654C17.0343 13.4284 17.1548 13.5176 17.2544 13.6277C17.3539 13.7377 17.4305 13.8666 17.4797 14.0066C17.5289 14.1467 17.5497 14.2951 17.5408 14.4432C17.532 14.5914 17.4937 14.7363 17.4282 14.8695C17.3628 15.0027 17.2714 15.1215 17.1595 15.219C17.0476 15.3165 16.9174 15.3907 16.7764 15.4373C16.3492 15.5877 15.9791 15.8669 15.7171 16.2363C15.455 16.6057 15.3139 17.0472 15.3131 17.5001C15.3131 17.7964 15.1955 18.0805 14.986 18.29C14.7765 18.4994 14.4924 18.6171 14.1961 18.6171Z" fill="white"/>
<path d="M22.7128 35H12.2872C9.02967 34.9961 5.90665 33.7002 3.6032 31.3968C1.29975 29.0933 0.0039414 25.9703 0 22.7128V12.2872C0.0039414 9.02967 1.29975 5.90665 3.6032 3.6032C5.90665 1.29975 9.02967 0.0039414 12.2872 0H22.7128C25.9703 0.0039414 29.0933 1.29975 31.3968 3.6032C33.7002 5.90665 34.9961 9.02967 35 12.2872V22.7128C34.9961 25.9703 33.7002 29.0933 31.3968 31.3968C29.0933 33.7002 25.9703 34.9961 22.7128 35ZM12.2872 2.23404C9.62187 2.237 7.06652 3.29712 5.18182 5.18182C3.29712 7.06652 2.237 9.62187 2.23404 12.2872V22.7128C2.237 25.3781 3.29712 27.9335 5.18182 29.8182C7.06652 31.7029 9.62187 32.763 12.2872 32.766H22.7128C25.3781 32.763 27.9335 31.7029 29.8182 29.8182C31.7029 27.9335 32.763 25.3781 32.766 22.7128V12.2872C32.763 9.62187 31.7029 7.06652 29.8182 5.18182C27.9335 3.29712 25.3781 2.237 22.7128 2.23404H12.2872Z" fill="white"/>
</svg>
