<svg width="60" height="80" viewBox="0 0 60 80" fill="none" xmlns="http://www.w3.org/2000/svg">
<path d="M58.0785 61.7663L40 33.3566V5.71429H45V0H15V5.71429H20V33.3566L1.92148 61.7663C0.831494 63.4791 0.177295 65.5031 0.0312497 67.6143C-0.114796 69.7256 0.253003 71.8419 1.09397 73.7292C1.93493 75.6164 3.21628 77.2011 4.79628 78.3078C6.37627 79.4145 8.19334 80.0002 10.0465 80H49.9535C51.8066 80.0002 53.6237 79.4145 55.2037 78.3078C56.7837 77.2011 58.065 75.6164 58.906 73.7292C59.747 71.8419 60.1148 69.7256 59.9687 67.6143C59.8227 65.5031 59.1685 63.4791 58.0785 61.7663ZM25 35.2149V5.71429H35V35.2149L41.682 45.7143H18.318L25 35.2149ZM49.9535 74.2857H10.0465C9.11564 74.2854 8.20301 73.9909 7.40945 73.4348C6.6159 72.8788 5.97233 72.0828 5.54988 71.1348C5.12743 70.1869 4.94255 69.1239 5.01567 68.0634C5.0888 67.0028 5.41708 65.9861 5.96423 65.1254L14.6815 51.4286H45.3185L54.0357 65.1254C54.5829 65.9861 54.9112 67.0028 54.9843 68.0634C55.0574 69.1239 54.8725 70.1869 54.4501 71.1348C54.0276 72.0828 53.3841 72.8788 52.5905 73.4348C51.797 73.9909 50.8843 74.2854 49.9535 74.2857Z" fill="white"/>
</svg>
