<svg width="69" height="75" viewBox="0 0 69 75" fill="none" xmlns="http://www.w3.org/2000/svg">
<path d="M40.9884 75H27.0349C8.09302 75 0 66.907 0 47.9651V27.0349C0 8.09302 8.09302 0 27.0349 0H40.9884C59.9302 0 68.0233 8.09302 68.0233 27.0349V47.9651C68.0233 66.907 59.9302 75 40.9884 75ZM27.0349 5.23256C10.9535 5.23256 5.23256 10.9535 5.23256 27.0349V47.9651C5.23256 64.0465 10.9535 69.7674 27.0349 69.7674H40.9884C57.0698 69.7674 62.7907 64.0465 62.7907 47.9651V27.0349C62.7907 10.9535 57.0698 5.23256 40.9884 5.23256H27.0349Z" fill="white"/>
<path d="M44.4768 33.419H23.5466C19.221 33.419 15.6978 29.8957 15.6978 25.5701V22.0817C15.6978 17.7562 19.221 14.2329 23.5466 14.2329H44.4768C48.8024 14.2329 52.3257 17.7562 52.3257 22.0817V25.5701C52.3257 29.8957 48.8024 33.419 44.4768 33.419ZM23.5466 19.4655C22.1164 19.4655 20.9303 20.6515 20.9303 22.0817V25.5701C20.9303 27.0004 22.1164 28.1864 23.5466 28.1864H44.4768C45.9071 28.1864 47.0931 27.0004 47.0931 25.5701V22.0817C47.0931 20.6515 45.9071 19.4655 44.4768 19.4655H23.5466Z" fill="white"/>
<path d="M20.5819 47.6869C20.1284 47.6869 19.6749 47.5822 19.2563 47.4078C18.8377 47.2334 18.454 46.9892 18.14 46.6752C17.4773 46.0124 17.1284 45.1403 17.1284 44.1985C17.1284 43.745 17.1982 43.2915 17.3726 42.8729C17.547 42.4194 17.7912 42.0706 18.14 41.7217C18.2796 41.5822 18.454 41.4078 18.6633 41.3031C18.8377 41.1636 19.047 41.0589 19.2563 40.9892C19.4656 40.8845 19.7098 40.8148 19.9191 40.7799C21.0354 40.5357 22.2563 40.9194 23.0587 41.7217C23.3726 42.0357 23.6517 42.4194 23.8261 42.8729C24.0005 43.2915 24.1052 43.745 24.1052 44.1985C24.1052 45.1403 23.7214 46.0124 23.0587 46.6752C22.3959 47.338 21.5238 47.6869 20.5819 47.6869Z" fill="white"/>
<path d="M34.5704 47.6862C33.6285 47.6862 32.7564 47.3374 32.0937 46.6746C31.4309 46.0118 31.082 45.1397 31.082 44.1978C31.082 43.7444 31.1518 43.2909 31.3262 42.8723C31.5006 42.4188 31.7448 42.0699 32.0937 41.7211C32.2332 41.5816 32.4076 41.4071 32.6169 41.3025C32.7913 41.163 33.0006 41.0583 33.2099 40.9885C33.4192 40.8839 33.6634 40.8141 33.8727 40.7792C34.5355 40.6397 35.2332 40.7095 35.896 40.9885C36.3146 41.163 36.6983 41.4071 37.0123 41.7211C37.3262 42.0699 37.6053 42.4188 37.7797 42.8723C37.9541 43.2909 38.0588 43.7444 38.0588 44.1978C38.0588 45.1397 37.6751 46.0118 37.0123 46.6746C36.3495 47.3374 35.4774 47.6862 34.5704 47.6862Z" fill="white"/>
<path d="M48.4891 47.6866C48.0356 47.6866 47.5822 47.5819 47.1636 47.4075C46.7449 47.2331 46.3612 46.9889 46.0473 46.6749C45.6984 46.3261 45.4542 45.9424 45.2798 45.5238C45.1054 45.1052 45.0356 44.6517 45.0356 44.1982C45.0356 43.7447 45.1054 43.2912 45.2798 42.8726C45.4542 42.4191 45.6984 42.0703 46.0473 41.7214C47.338 40.4307 49.6752 40.4307 50.9659 41.7214C51.6287 42.3842 52.0124 43.2912 52.0124 44.1982C52.0124 45.14 51.6287 46.0121 50.9659 46.6749C50.338 47.3028 49.4659 47.6866 48.4891 47.6866Z" fill="white"/>
<path d="M20.6175 61.6394C19.6756 61.6394 18.8035 61.2906 18.1407 60.6278C17.478 59.965 17.0942 59.0929 17.0942 58.151C17.0942 57.2441 17.478 56.3371 18.1407 55.6743C18.2803 55.5348 18.4896 55.3603 18.664 55.2557C18.8384 55.1161 19.0477 55.0115 19.257 54.9417C19.4663 54.8371 19.7105 54.7673 19.9198 54.7324C21.071 54.5231 22.257 54.872 23.0594 55.6743C23.2338 55.8487 23.3733 56.0231 23.5128 56.1975C23.6175 56.4068 23.7221 56.6161 23.8268 56.8255C23.8966 57.0348 23.9663 57.2441 24.0361 57.4534C24.071 57.6975 24.1059 57.9069 24.1059 58.151C24.1059 59.0929 23.7221 59.965 23.0594 60.6278C22.3966 61.2906 21.5245 61.6394 20.6175 61.6394Z" fill="white"/>
<path d="M34.5711 61.6394C33.6292 61.6394 32.7572 61.2906 32.0944 60.6278C31.4316 59.965 31.0479 59.0929 31.0479 58.151C31.0479 57.2441 31.4316 56.3371 32.0944 55.6743C32.8967 54.872 34.1176 54.5231 35.2339 54.7324C35.4432 54.7673 35.6874 54.8371 35.8967 54.9417C36.106 55.0115 36.3153 55.1161 36.4897 55.2557C36.6641 55.3603 36.8386 55.5348 37.013 55.6743C37.6758 56.3371 38.0246 57.2441 38.0246 58.151C38.0246 59.0929 37.6758 59.965 37.013 60.6278C36.3502 61.2906 35.4781 61.6394 34.5711 61.6394Z" fill="white"/>
<path d="M48.4891 61.6405C47.5822 61.6405 46.7101 61.2916 46.0473 60.6288C45.3845 59.966 45.0356 59.094 45.0356 58.1521C45.0356 57.2451 45.3845 56.3381 46.0473 55.6754C46.3612 55.3614 46.7449 55.1172 47.1636 54.9428C48.4542 54.4195 50.024 54.6986 50.9659 55.6754C51.6287 56.3381 51.9775 57.2451 51.9775 58.1521C51.9775 59.094 51.6287 59.966 50.9659 60.6288C50.6519 60.9428 50.2682 61.187 49.8496 61.3614C49.431 61.5358 48.9775 61.6405 48.4891 61.6405Z" fill="white"/>
</svg>
