<svg width="85" height="65" viewBox="0 0 85 65" fill="none" xmlns="http://www.w3.org/2000/svg">
<path d="M66.4069 9.24582C66.4054 9.08179 66.4344 8.9191 66.4921 8.76725C66.5498 8.61541 66.6351 8.47746 66.7429 8.36147C66.8508 8.24548 66.979 8.15377 67.1202 8.09172C67.2614 8.02966 67.4126 7.9985 67.5651 8.00006C67.7173 7.99984 67.868 8.03191 68.0086 8.09444C68.1492 8.15696 68.277 8.24872 68.3846 8.36444C68.4922 8.48016 68.5775 8.61758 68.6357 8.76882C68.6938 8.92007 68.7236 9.08216 68.7234 9.24582C68.721 9.57541 68.5982 9.89076 68.3815 10.1238C68.1648 10.3569 67.8716 10.489 67.5651 10.4916C67.258 10.4916 66.9633 10.3603 66.7461 10.1267C66.5289 9.89308 66.4069 9.57621 66.4069 9.24582ZM61.7738 9.24582C61.7724 9.08179 61.8014 8.9191 61.8591 8.76725C61.9168 8.61541 62.002 8.47746 62.1099 8.36147C62.2177 8.24548 62.346 8.15377 62.4872 8.09172C62.6283 8.02966 62.7796 7.9985 62.9321 8.00006C63.0843 7.99984 63.235 8.03191 63.3756 8.09444C63.5162 8.15696 63.644 8.24872 63.7516 8.36444C63.8592 8.48016 63.9445 8.61758 64.0026 8.76882C64.0607 8.92007 64.0906 9.08216 64.0904 9.24582C64.0879 9.57541 63.9651 9.89076 63.7484 10.1238C63.5317 10.3569 63.2385 10.489 62.9321 10.4916C62.6249 10.4916 62.3303 10.3603 62.1131 10.1267C61.8959 9.89308 61.7738 9.57621 61.7738 9.24582ZM57.1408 9.24582C57.1394 9.08179 57.1683 8.9191 57.226 8.76725C57.2837 8.61541 57.369 8.47746 57.4768 8.36147C57.5847 8.24548 57.7129 8.15377 57.8541 8.09172C57.9953 8.02966 58.1466 7.9985 58.2991 8.00006C58.4512 7.99984 58.6019 8.03191 58.7426 8.09444C58.8832 8.15696 59.0109 8.24872 59.1185 8.36444C59.2261 8.48016 59.3114 8.61758 59.3696 8.76882C59.4277 8.92007 59.4575 9.08216 59.4573 9.24582C59.4549 9.57541 59.3321 9.89076 59.1154 10.1238C58.8987 10.3569 58.6055 10.489 58.2991 10.4916C57.9919 10.4916 57.6973 10.3603 57.4801 10.1267C57.2628 9.89308 57.1408 9.57621 57.1408 9.24582ZM52.5078 9.24582C52.5063 9.08179 52.5353 8.9191 52.593 8.76725C52.6507 8.61541 52.736 8.47746 52.8438 8.36147C52.9516 8.24548 53.0799 8.15377 53.2211 8.09172C53.3623 8.02966 53.5135 7.9985 53.666 8.00006C53.8182 7.99984 53.9689 8.03191 54.1095 8.09444C54.2501 8.15696 54.3779 8.24872 54.4855 8.36444C54.5931 8.48016 54.6784 8.61758 54.7365 8.76882C54.7947 8.92007 54.8245 9.08216 54.8243 9.24582C54.8219 9.57541 54.6991 9.89076 54.4824 10.1238C54.2657 10.3569 53.9725 10.489 53.666 10.4916C53.3588 10.4916 53.0642 10.3603 52.847 10.1267C52.6298 9.89308 52.5078 9.57621 52.5078 9.24582ZM47.8747 9.24582C47.8733 9.08179 47.9023 8.9191 47.96 8.76725C48.0177 8.61541 48.1029 8.47746 48.2108 8.36147C48.3186 8.24548 48.4469 8.15377 48.588 8.09172C48.7292 8.02966 48.8805 7.9985 49.033 8.00006C49.1852 7.99984 49.3359 8.03191 49.4765 8.09444C49.6171 8.15696 49.7449 8.24872 49.8525 8.36444C49.9601 8.48016 50.0454 8.61758 50.1035 8.76882C50.1616 8.92007 50.1915 9.08216 50.1913 9.24582C50.1888 9.57541 50.066 9.89076 49.8493 10.1238C49.6326 10.3569 49.3394 10.489 49.033 10.4916C48.7258 10.4916 48.4312 10.3603 48.214 10.1267C47.9968 9.89308 47.8747 9.57621 47.8747 9.24582ZM43.2417 9.24582C43.2415 9.08216 43.2713 8.92007 43.3294 8.76882C43.3876 8.61758 43.4729 8.48016 43.5805 8.36444C43.6881 8.24872 43.8158 8.15696 43.9565 8.09444C44.0971 8.03191 44.2478 7.99984 44.4 8.00006C44.5525 7.9985 44.7037 8.02966 44.8449 8.09172C44.9861 8.15377 45.1143 8.24548 45.2222 8.36147C45.33 8.47746 45.4153 8.61541 45.473 8.76725C45.5307 8.9191 45.5597 9.08179 45.5582 9.24582C45.5582 9.57621 45.4362 9.89308 45.219 10.1267C45.0018 10.3603 44.7071 10.4916 44.4 10.4916C44.0935 10.489 43.8003 10.3569 43.5836 10.1238C43.3669 9.89076 43.2441 9.57541 43.2417 9.24582ZM37.0643 55.7542C37.0641 55.5905 37.0939 55.4284 37.1521 55.2772C37.2102 55.126 37.2955 54.9885 37.4031 54.8728C37.5107 54.7571 37.6385 54.6653 37.7791 54.6028C37.9197 54.5403 38.0704 54.5082 38.2226 54.5084C38.5291 54.5106 38.8226 54.6426 39.0393 54.8757C39.2561 55.1089 39.3788 55.4245 39.3808 55.7542C39.381 55.9178 39.3512 56.0799 39.2931 56.2312C39.2349 56.3824 39.1496 56.5198 39.042 56.6356C38.9344 56.7513 38.8067 56.843 38.6661 56.9056C38.5254 56.9681 38.3747 57.0002 38.2226 56.9999C38.0701 57.0015 37.9188 56.9703 37.7776 56.9083C37.6364 56.8462 37.5082 56.7545 37.4003 56.6385C37.2925 56.5225 37.2072 56.3846 37.1495 56.2327C37.0918 56.0809 37.0629 55.9182 37.0643 55.7542ZM32.4313 55.7542C32.4311 55.5905 32.4609 55.4284 32.519 55.2772C32.5772 55.126 32.6625 54.9885 32.7701 54.8728C32.8777 54.7571 33.0054 54.6653 33.146 54.6028C33.2867 54.5403 33.4374 54.5082 33.5895 54.5084C33.8961 54.5106 34.1895 54.6426 34.4063 54.8757C34.6231 55.1089 34.7458 55.4245 34.7478 55.7542C34.748 55.9178 34.7182 56.0799 34.66 56.2312C34.6019 56.3824 34.5166 56.5198 34.409 56.6356C34.3014 56.7513 34.1736 56.843 34.033 56.9056C33.8924 56.9681 33.7417 57.0002 33.5895 56.9999C33.437 57.0015 33.2858 56.9703 33.1446 56.9083C33.0034 56.8462 32.8751 56.7545 32.7673 56.6385C32.6595 56.5225 32.5742 56.3846 32.5165 56.2327C32.4588 56.0809 32.4298 55.9182 32.4313 55.7542ZM27.7982 55.7542C27.798 55.5905 27.8278 55.4284 27.886 55.2772C27.9441 55.126 28.0294 54.9885 28.137 54.8728C28.2446 54.7571 28.3724 54.6653 28.513 54.6028C28.6536 54.5403 28.8043 54.5082 28.9565 54.5084C29.2631 54.5106 29.5565 54.6426 29.7733 54.8757C29.99 55.1089 30.1127 55.4245 30.1148 55.7542C30.115 55.9178 30.0851 56.0799 30.027 56.2312C29.9689 56.3824 29.8836 56.5198 29.776 56.6356C29.6684 56.7513 29.5406 56.843 29.4 56.9056C29.2594 56.9681 29.1087 57.0002 28.9565 56.9999C28.804 57.0015 28.6527 56.9703 28.5115 56.9083C28.3704 56.8462 28.2421 56.7545 28.1343 56.6385C28.0264 56.5225 27.9412 56.3846 27.8835 56.2327C27.8258 56.0809 27.7968 55.9182 27.7982 55.7542ZM23.1652 55.7542C23.165 55.5905 23.1948 55.4284 23.2529 55.2772C23.3111 55.126 23.3964 54.9885 23.504 54.8728C23.6116 54.7571 23.7393 54.6653 23.88 54.6028C24.0206 54.5403 24.1713 54.5082 24.3235 54.5084C24.63 54.5106 24.9235 54.6426 25.1402 54.8757C25.357 55.1089 25.4797 55.4245 25.4817 55.7542C25.4819 55.9178 25.4521 56.0799 25.394 56.2312C25.3358 56.3824 25.2505 56.5198 25.1429 56.6356C25.0353 56.7513 24.9076 56.843 24.7669 56.9056C24.6263 56.9681 24.4756 57.0002 24.3235 56.9999C24.1709 57.0015 24.0197 56.9703 23.8785 56.9083C23.7373 56.8462 23.6091 56.7545 23.5012 56.6385C23.3934 56.5225 23.3081 56.3846 23.2504 56.2327C23.1927 56.0809 23.1637 55.9182 23.1652 55.7542ZM18.5322 55.7542C18.532 55.5905 18.5618 55.4284 18.6199 55.2772C18.678 55.126 18.7634 54.9885 18.8709 54.8728C18.9785 54.7571 19.1063 54.6653 19.2469 54.6028C19.3875 54.5403 19.5383 54.5082 19.6904 54.5084C19.997 54.5106 20.2904 54.6426 20.5072 54.8757C20.724 55.1089 20.8467 55.4245 20.8487 55.7542C20.8489 55.9178 20.8191 56.0799 20.7609 56.2312C20.7028 56.3824 20.6175 56.5198 20.5099 56.6356C20.4023 56.7513 20.2745 56.843 20.1339 56.9056C19.9933 56.9681 19.8426 57.0002 19.6904 56.9999C19.5379 57.0015 19.3866 56.9703 19.2455 56.9083C19.1043 56.8462 18.976 56.7545 18.8682 56.6385C18.7603 56.5225 18.6751 56.3846 18.6174 56.2327C18.5597 56.0809 18.5307 55.9182 18.5322 55.7542ZM13.8991 55.7542C13.9011 55.4245 14.0238 55.1089 14.2406 54.8757C14.4574 54.6426 14.7508 54.5106 15.0574 54.5084C15.3639 54.5106 15.6574 54.6426 15.8742 54.8757C16.0909 55.1089 16.2136 55.4245 16.2156 55.7542C16.2158 55.9178 16.186 56.0799 16.1279 56.2312C16.0697 56.3824 15.9844 56.5198 15.8768 56.6356C15.7692 56.7513 15.6415 56.843 15.5009 56.9056C15.3602 56.9681 15.2095 57.0002 15.0574 56.9999C14.9052 57.0002 14.7545 56.9681 14.6139 56.9056C14.4733 56.843 14.3455 56.7513 14.2379 56.6356C14.1303 56.5198 14.045 56.3824 13.9869 56.2312C13.9287 56.0799 13.8989 55.9178 13.8991 55.7542ZM41.6973 49.1101C41.6971 48.9465 41.727 48.7844 41.7851 48.6331C41.8432 48.4819 41.9285 48.3445 42.0361 48.2288C42.1437 48.113 42.2715 48.0213 42.4121 47.9588C42.5527 47.8962 42.7034 47.8642 42.8556 47.8644C43.1622 47.8665 43.4556 47.9985 43.6724 48.2317C43.8892 48.4648 44.0118 48.7804 44.0139 49.1101C44.0114 49.4397 43.8886 49.7551 43.6719 49.9881C43.4552 50.2212 43.162 50.3533 42.8556 50.3559C42.5484 50.3559 42.2538 50.2246 42.0366 49.991C41.8194 49.7574 41.6973 49.4405 41.6973 49.1101ZM41.6973 44.1271C41.6971 43.9634 41.727 43.8013 41.7851 43.6501C41.8432 43.4989 41.9285 43.3614 42.0361 43.2457C42.1437 43.13 42.2715 43.0382 42.4121 42.9757C42.5527 42.9132 42.7034 42.8811 42.8556 42.8813C43.1622 42.8835 43.4556 43.0155 43.6724 43.2486C43.8892 43.4818 44.0118 43.7974 44.0139 44.1271C44.0114 44.4567 43.8886 44.772 43.6719 45.0051C43.4552 45.2382 43.162 45.3702 42.8556 45.3729C42.5484 45.3729 42.2538 45.2416 42.0366 45.008C41.8194 44.7744 41.6973 44.4575 41.6973 44.1271ZM41.6973 39.1441C41.6971 38.9804 41.727 38.8183 41.7851 38.6671C41.8432 38.5158 41.9285 38.3784 42.0361 38.2627C42.1437 38.147 42.2715 38.0552 42.4121 37.9927C42.5527 37.9301 42.7034 37.8981 42.8556 37.8983C43.1622 37.9005 43.4556 38.0324 43.6724 38.2656C43.8892 38.4987 44.0118 38.8143 44.0139 39.1441C44.0141 39.3077 43.9842 39.4698 43.9261 39.621C43.868 39.7723 43.7827 39.9097 43.6751 40.0254C43.5675 40.1411 43.4397 40.2329 43.2991 40.2954C43.1585 40.358 43.0078 40.39 42.8556 40.3898C42.7031 40.3914 42.5518 40.3602 42.4107 40.2981C42.2695 40.2361 42.1412 40.1444 42.0334 40.0284C41.9255 39.9124 41.8403 39.7745 41.7826 39.6226C41.7249 39.4708 41.6959 39.3081 41.6973 39.1441ZM41.6973 34.161C41.6971 33.9974 41.727 33.8353 41.7851 33.684C41.8432 33.5328 41.9285 33.3954 42.0361 33.2796C42.1437 33.1639 42.2715 33.0722 42.4121 33.0096C42.5527 32.9471 42.7034 32.915 42.8556 32.9153C43.1622 32.9174 43.4556 33.0494 43.6724 33.2825C43.8892 33.5157 44.0118 33.8313 44.0139 34.161C44.0114 34.4906 43.8886 34.806 43.6719 35.039C43.4552 35.2721 43.162 35.4042 42.8556 35.4068C42.5484 35.4068 42.2538 35.2755 42.0366 35.0419C41.8194 34.8083 41.6973 34.4914 41.6973 34.161ZM41.6973 29.178C41.6971 29.0143 41.727 28.8522 41.7851 28.701C41.8432 28.5497 41.9285 28.4123 42.0361 28.2966C42.1437 28.1809 42.2715 28.0891 42.4121 28.0266C42.5527 27.9641 42.7034 27.932 42.8556 27.9322C43.1622 27.9344 43.4556 28.0663 43.6724 28.2995C43.8892 28.5326 44.0118 28.8482 44.0139 29.178C44.0114 29.5076 43.8886 29.8229 43.6719 30.056C43.4552 30.289 43.162 30.4211 42.8556 30.4237C42.5484 30.4237 42.2538 30.2925 42.0366 30.0589C41.8194 29.8252 41.6973 29.5084 41.6973 29.178ZM41.6973 24.1949C41.6959 24.0309 41.7249 23.8682 41.7826 23.7164C41.8403 23.5645 41.9255 23.4266 42.0334 23.3106C42.1412 23.1946 42.2695 23.1029 42.4107 23.0408C42.5518 22.9788 42.7031 22.9476 42.8556 22.9492C43.0078 22.949 43.1585 22.981 43.2991 23.0436C43.4397 23.1061 43.5675 23.1978 43.6751 23.3136C43.7827 23.4293 43.868 23.5667 43.9261 23.7179C43.9842 23.8692 44.0141 24.0313 44.0139 24.1949C44.0141 24.3586 43.9842 24.5207 43.9261 24.6719C43.868 24.8232 43.7827 24.9606 43.6751 25.0763C43.5675 25.192 43.4397 25.2838 43.2991 25.3463C43.1585 25.4088 43.0078 25.4409 42.8556 25.4407C42.7031 25.4422 42.5518 25.4111 42.4107 25.349C42.2695 25.287 42.1412 25.1953 42.0334 25.0793C41.9255 24.9633 41.8403 24.8253 41.7826 24.6735C41.7249 24.5217 41.6959 24.359 41.6973 24.1949ZM41.6973 19.2119C41.6971 19.0482 41.727 18.8861 41.7851 18.7349C41.8432 18.5837 41.9285 18.4462 42.0361 18.3305C42.1437 18.2148 42.2715 18.123 42.4121 18.0605C42.5527 17.998 42.7034 17.9659 42.8556 17.9661C43.1622 17.9683 43.4556 18.1003 43.6724 18.3334C43.8892 18.5666 44.0118 18.8822 44.0139 19.2119C44.0114 19.5415 43.8886 19.8568 43.6719 20.0899C43.4552 20.323 43.162 20.455 42.8556 20.4577C42.5484 20.4577 42.2538 20.3264 42.0366 20.0928C41.8194 19.8592 41.6973 19.5423 41.6973 19.2119ZM15.0574 33.7458H1.15826C0.85107 33.7458 0.556462 33.6145 0.339246 33.3809C0.12203 33.1473 0 32.8304 0 32.5V9.24582C0 8.91542 0.12203 8.59855 0.339246 8.36493C0.556462 8.1313 0.85107 8.00006 1.15826 8.00006C8.95257 8.00006 12.6158 20.2617 16.16 32.118C16.216 32.3049 16.2301 32.5033 16.2012 32.6972C16.1723 32.8911 16.1012 33.0749 15.9937 33.2336C15.8862 33.3923 15.7454 33.5214 15.5826 33.6104C15.4199 33.6994 15.2399 33.7458 15.0574 33.7458ZM2.31652 31.2542H13.4667C10.5386 21.4974 7.42213 11.9001 2.31652 10.6328V31.2542Z" fill="white"/>
<path d="M70.2882 34H42.7436C42.5627 34 42.3844 33.9532 42.2231 33.8633C42.0619 33.7734 41.9223 33.643 41.8158 33.4828C41.7093 33.3225 41.6388 33.1369 41.6102 32.9411C41.5815 32.7453 41.5955 32.5449 41.651 32.3561C45.1629 20.3827 48.7927 8 56.5159 8C64.2391 8 67.8689 20.3827 71.3808 32.3561C71.4363 32.5449 71.4503 32.7453 71.4217 32.9411C71.393 33.1369 71.3226 33.3225 71.216 33.4828C71.1095 33.643 70.9699 33.7734 70.8087 33.8633C70.6475 33.9532 70.4691 34 70.2882 34ZM44.3198 31.4839H68.7121C65.598 20.9077 62.2682 10.5161 56.5159 10.5161C50.7637 10.5161 47.4338 20.9077 44.3198 31.4839Z" fill="white"/>
<path d="M83.8479 57C76.0945 57 72.4505 44.6174 68.9247 32.6441C68.8783 32.4868 68.8608 32.3211 68.873 32.1564C68.8853 31.9917 68.9271 31.8312 68.9962 31.6842C69.0652 31.5372 69.1601 31.4064 69.2754 31.2994C69.3907 31.1924 69.5242 31.1113 69.6683 31.0606C69.8123 31.0099 69.9641 30.9908 70.115 31.0041C70.2658 31.0175 70.4127 31.0632 70.5474 31.1386C70.6821 31.214 70.8018 31.3176 70.8998 31.4435C70.9978 31.5694 71.0721 31.7152 71.1185 31.8725C74.3907 42.9886 77.7751 54.4839 83.8479 54.4839C84.1535 54.4839 84.4466 54.6164 84.6627 54.8524C84.8787 55.0883 85.0001 55.4083 85.0001 55.7419C85.0001 56.0756 84.8787 56.3956 84.6627 56.6315C84.4466 56.8675 84.1535 57 83.8479 57ZM28.5427 57C20.7892 57 17.1452 44.6174 13.6195 32.6441C13.5638 32.4553 13.5497 32.2549 13.5785 32.0591C13.6072 31.8633 13.678 31.6777 13.7849 31.5175C13.8919 31.3572 14.032 31.2268 14.1938 31.1369C14.3557 31.047 14.5348 31.0002 14.7164 31.0002H42.369C42.5506 31.0002 42.7296 31.047 42.8915 31.1369C43.0534 31.2268 43.1935 31.3572 43.3005 31.5175C43.4074 31.6777 43.4781 31.8633 43.5069 32.0591C43.5356 32.2549 43.5216 32.4553 43.4659 32.6441C39.9402 44.6157 36.2962 57 28.5427 57ZM16.2987 33.5163C19.425 44.0924 22.7679 54.4839 28.5427 54.4839C34.3175 54.4839 37.6604 44.0924 40.7867 33.5163H16.2987Z" fill="white"/>
<path d="M83.8514 33.7342H70.0676C69.7629 33.7342 69.4708 33.6041 69.2553 33.3727C69.0399 33.1412 68.9189 32.8273 68.9189 32.5C68.9189 32.1727 69.0399 31.8588 69.2553 31.6273C69.4708 31.3958 69.7629 31.2658 70.0676 31.2658H83.8514C84.156 31.2658 84.4482 31.3958 84.6636 31.6273C84.879 31.8588 85 32.1727 85 32.5C85 32.8273 84.879 33.1412 84.6636 33.3727C84.4482 33.6041 84.156 33.7342 83.8514 33.7342ZM1.14865 65C0.844008 65 0.551845 64.87 0.336431 64.6385C0.121018 64.4071 0 64.0931 0 63.7658V32.5C0 32.1727 0.121018 31.8588 0.336431 31.6273C0.551845 31.3958 0.844008 31.2658 1.14865 31.2658C1.45329 31.2658 1.74545 31.3958 1.96087 31.6273C2.17628 31.8588 2.2973 32.1727 2.2973 32.5V63.7658C2.2973 64.0931 2.17628 64.4071 1.96087 64.6385C1.74545 64.87 1.45329 65 1.14865 65ZM1.14865 10.6962C0.844008 10.6962 0.551845 10.5662 0.336431 10.3347C0.121018 10.1033 0 9.78935 0 9.46202V1.23418C0 0.906853 0.121018 0.592936 0.336431 0.361483C0.551845 0.13003 0.844008 0 1.14865 0C1.45329 0 1.74545 0.13003 1.96087 0.361483C2.17628 0.592936 2.2973 0.906853 2.2973 1.23418V9.46202C2.2973 9.78935 2.17628 10.1033 1.96087 10.3347C1.74545 10.5662 1.45329 10.6962 1.14865 10.6962Z" fill="white"/>
</svg>
