<svg width="63" height="68" viewBox="0 0 63 68" fill="none" xmlns="http://www.w3.org/2000/svg">
<path d="M46.3324 25.5375L42.6399 19.7875C41.2187 17.5775 40.4636 15.0051 40.4649 12.3775V7.15H33.6049V0H28.6049V7.15H21.7274V12.3825C21.7283 15.0097 20.9742 17.5817 19.5549 19.7925L15.8549 25.5375C14.0751 28.2946 13.0466 31.4689 12.8712 34.7458C12.6958 38.0228 13.3796 41.2887 14.8549 44.22C16.2037 47.0123 18.2585 49.4039 20.8158 51.1578C23.3731 52.9118 26.3442 53.9674 29.4349 54.22C29.9799 54.265 30.5324 54.285 31.0924 54.285C31.6524 54.285 32.1999 54.265 32.7499 54.22C35.8402 53.9672 38.8109 52.9115 41.3678 51.1576C43.9246 49.4036 45.979 47.0121 47.3274 44.22C48.8034 41.2891 49.4881 38.0234 49.3136 34.7465C49.139 31.4695 48.1114 28.295 46.3324 25.5375ZM42.8549 42.005C41.9015 44.0335 40.4275 45.7731 38.583 47.0466C36.7386 48.3202 34.5896 49.0822 32.3549 49.255C31.5229 49.321 30.6869 49.321 29.8549 49.255C27.6202 49.0822 25.4712 48.3202 23.6267 47.0466C21.7823 45.7731 20.3083 44.0335 19.3549 42.005C18.267 39.8463 17.7619 37.441 17.8895 35.0271C18.0171 32.6132 18.773 30.2744 20.0824 28.2425L23.7749 22.4925C25.7141 19.4764 26.7443 15.9658 26.7424 12.38V12.15H35.4799V12.3825C35.4781 15.9686 36.5092 19.4794 38.4499 22.495L42.1374 28.245C43.4457 30.2772 44.2002 32.616 44.326 35.0296C44.4519 37.4432 43.9447 39.8478 42.8549 42.005Z" fill="#DFEAEF"/>
<path d="M33.5977 16.8872H28.5977V28.9497H33.5977V16.8872Z" fill="#DFEAEF"/>
<path d="M62.2099 33.5771H53.8174V38.5771H62.2099V33.5771Z" fill="#DFEAEF"/>
<path d="M48.933 50.3688L45.3975 53.9043L51.3319 59.8387L54.8674 56.3032L48.933 50.3688Z" fill="#DFEAEF"/>
<path d="M33.605 58.7896H28.605V67.1821H33.605V58.7896Z" fill="#DFEAEF"/>
<path d="M13.2718 50.3713L7.3374 56.3057L10.8729 59.8412L16.8073 53.9068L13.2718 50.3713Z" fill="#DFEAEF"/>
<path d="M8.39 33.5771H0V38.5771H8.39V33.5771Z" fill="#DFEAEF"/>
</svg>
