<svg width="75" height="75" viewBox="0 0 75 75" fill="none" xmlns="http://www.w3.org/2000/svg">
<path d="M22.9314 58.3108L11.9801 46.9579L22.9314 35.605L26.5122 39.063L18.8794 46.9579L26.5122 54.8528L22.9314 58.3108ZM52.0354 58.3407L48.5144 54.8197L56.3794 46.9546L48.5144 39.0896L52.0354 35.5685L63.4182 46.9512L52.0354 58.3407ZM33.4414 57.9458L29.2798 55.2179L41.8905 35.9702L46.052 38.6981L33.4414 57.9458ZM0 0H75V75H0V0ZM70.0221 4.9779H4.9779V70.0221H70.0221V4.9779ZM75 24.2257H0V0H75V24.2257ZM4.9779 19.2478H70.0221V4.97776H4.97798L4.9779 19.2478ZM18.4181 14.6018H12.1127V9.6238H18.4181V14.6018ZM31.3605 14.6018H24.7233V9.6238H31.3605V14.6018ZM43.9712 14.6018H37.6659V9.6238H43.9712V14.6018Z" fill="white"/>
</svg>
