<svg width="74" height="69" viewBox="0 0 74 69" fill="none" xmlns="http://www.w3.org/2000/svg">
<path d="M73.5904 8.1403V66.9478C73.5904 67.375 73.4329 67.7846 73.1525 68.0866C72.8721 68.3886 72.4918 68.5583 72.0952 68.5583H8.67249C8.27593 68.5583 7.89561 68.3886 7.6152 68.0866C7.33479 67.7846 7.17725 67.375 7.17725 66.9478V8.1403C7.17671 7.92844 7.21499 7.71854 7.28989 7.52264C7.3648 7.32673 7.47485 7.14867 7.61375 6.99865C7.75265 6.84864 7.91766 6.72961 8.09934 6.6484C8.28102 6.56719 8.47579 6.52539 8.67249 6.52539H72.0952C72.2919 6.52539 72.4867 6.56719 72.6684 6.6484C72.85 6.72961 73.0151 6.84864 73.154 6.99865C73.2929 7.14867 73.4029 7.32673 73.4778 7.52264C73.5527 7.71854 73.591 7.92844 73.5904 8.1403Z" fill="#68E1FD"/>
<path d="M72.0952 68.9994H8.67248C8.1676 68.9982 7.68371 68.7817 7.32671 68.3972C6.9697 68.0126 6.76866 67.4914 6.76758 66.9476V8.14013C6.76758 7.59557 6.96814 7.07325 7.32526 6.68777C7.68238 6.3023 8.16689 6.08515 8.67248 6.08398H72.0952C72.6008 6.08515 73.0853 6.3023 73.4424 6.68777C73.7995 7.07325 74.0001 7.59557 74.0001 8.14013V66.9476C74.0001 67.4918 73.7994 68.0137 73.4421 68.3984C73.0849 68.7832 72.6004 68.9994 72.0952 68.9994ZM8.67248 6.96645C8.38418 6.96762 8.10807 7.09179 7.9046 7.31177C7.70113 7.53175 7.58689 7.82961 7.58689 8.14013V66.9476C7.58689 67.2578 7.70126 67.5552 7.90485 67.7744C8.10843 67.9937 8.38456 68.1169 8.67248 68.1169H72.0952C72.3831 68.1169 72.6592 67.9937 72.8628 67.7744C73.0664 67.5552 73.1808 67.2578 73.1808 66.9476V8.14013C73.1808 7.82961 73.0665 7.53175 72.8631 7.31177C72.6596 7.09179 72.3835 6.96762 72.0952 6.96645H8.67248Z" fill="#093F68"/>
<path d="M66.8229 2.05583V60.8633C66.8229 61.0748 66.7842 61.2843 66.709 61.4797C66.6339 61.6751 66.5238 61.8526 66.3849 62.0021C66.2461 62.1517 66.0812 62.2703 65.8998 62.3513C65.7184 62.4322 65.524 62.4738 65.3276 62.4738H1.90491C1.70856 62.4738 1.51412 62.4322 1.33271 62.3513C1.1513 62.2703 0.986465 62.1517 0.847619 62.0021C0.708774 61.8526 0.598635 61.6751 0.523492 61.4797C0.448349 61.2843 0.409674 61.0748 0.409674 60.8633V2.05583C0.409135 1.84397 0.447412 1.63407 0.522314 1.43817C0.597215 1.24226 0.70727 1.0642 0.846169 0.914182C0.985069 0.764165 1.15008 0.645142 1.33176 0.563931C1.51344 0.48272 1.70821 0.440917 1.90491 0.440918H65.3276C65.5243 0.440917 65.7191 0.48272 65.9008 0.563931C66.0825 0.645142 66.2475 0.764165 66.3864 0.914182C66.5253 1.0642 66.6353 1.24226 66.7102 1.43817C66.7851 1.63407 66.8234 1.84397 66.8229 2.05583Z" fill="white"/>
<path d="M65.3276 62.9154H1.90489C1.65474 62.9154 1.40703 62.8623 1.17592 62.7592C0.94481 62.6561 0.734816 62.505 0.557931 62.3145C0.381045 62.1239 0.24073 61.8978 0.145001 61.6488C0.0492707 61.3999 0 61.1331 0 60.8637V2.05615C-1.16411e-06 1.51159 0.200561 0.989265 0.55768 0.60379C0.9148 0.218315 1.39931 0.00116858 1.90489 0H65.3276C65.8332 0.00116858 66.3177 0.218315 66.6748 0.60379C67.0319 0.989265 67.2325 1.51159 67.2325 2.05615V60.8637C67.2325 61.4078 67.0318 61.9297 66.6746 62.3145C66.3173 62.6992 65.8328 62.9154 65.3276 62.9154ZM1.90489 0.882466C1.6166 0.883633 1.34049 1.0078 1.13702 1.22778C0.93355 1.44777 0.819307 1.74563 0.819309 2.05615V60.8637C0.819309 61.1738 0.933684 61.4712 1.13727 61.6905C1.34086 61.9097 1.61698 62.0329 1.90489 62.0329H65.3276C65.6155 62.0329 65.8916 61.9097 66.0952 61.6905C66.2988 61.4712 66.4132 61.1738 66.4132 60.8637V2.05615C66.4132 1.74563 66.299 1.44777 66.0955 1.22778C65.892 1.0078 65.6159 0.883633 65.3276 0.882466H1.90489Z" fill="#093F68"/>
<path d="M66.823 2.05583V60.8633C66.823 61.0748 66.7843 61.2843 66.7091 61.4797C66.634 61.6751 66.5239 61.8526 66.385 62.0021C66.2462 62.1517 66.0813 62.2703 65.8999 62.3513C65.7185 62.4322 65.5241 62.4738 65.3277 62.4738H23.1333V0.440918H65.3277C65.5244 0.440917 65.7192 0.48272 65.9009 0.563931C66.0825 0.645142 66.2476 0.764165 66.3865 0.914182C66.5254 1.0642 66.6354 1.24226 66.7103 1.43817C66.7852 1.63407 66.8235 1.84397 66.823 2.05583Z" fill="#093F68"/>
<path d="M65.3277 62.9154H23.1333C23.0246 62.9154 22.9204 62.8689 22.8436 62.7862C22.7668 62.7034 22.7236 62.5912 22.7236 62.4742V0.441233C22.7236 0.324211 22.7668 0.211981 22.8436 0.129234C22.9204 0.0464866 23.0246 0 23.1333 0H65.3277C65.8333 0.00116858 66.3178 0.218315 66.6749 0.60379C67.032 0.989265 67.2326 1.51159 67.2326 2.05615V60.8637C67.2326 61.4078 67.0319 61.9297 66.6747 62.3145C66.3174 62.6992 65.8329 62.9154 65.3277 62.9154ZM23.5429 62.0329H65.3277C65.6156 62.0329 65.8917 61.9097 66.0953 61.6905C66.2989 61.4712 66.4133 61.1738 66.4133 60.8637V2.05615C66.4133 1.74563 66.2991 1.44777 66.0956 1.22778C65.8921 1.0078 65.616 0.883633 65.3277 0.882466H23.5429V62.0329Z" fill="#093F68"/>
<path d="M66.8229 2.05583V8.67432H0.409674V2.05583C0.409135 1.84397 0.447412 1.63407 0.522314 1.43817C0.597215 1.24226 0.70727 1.0642 0.846169 0.914182C0.985069 0.764165 1.15008 0.645142 1.33176 0.563931C1.51344 0.48272 1.70821 0.440917 1.90491 0.440918H65.3276C65.5243 0.440917 65.7191 0.48272 65.9008 0.563931C66.0825 0.645142 66.2475 0.764165 66.3864 0.914182C66.5253 1.0642 66.6353 1.24226 66.7102 1.43817C66.7851 1.63407 66.8234 1.84397 66.8229 2.05583Z" fill="white"/>
<path d="M66.8228 9.12027H0.409655C0.301007 9.12027 0.19681 9.07378 0.119985 8.99103C0.0431596 8.90828 0 8.79606 0 8.67904V2.06054C-1.16411e-06 1.51598 0.200561 0.99366 0.55768 0.608185C0.9148 0.222709 1.39931 0.00556312 1.90489 0.00439453H65.3276C65.8332 0.00556312 66.3177 0.222709 66.6748 0.608185C67.0319 0.99366 67.2325 1.51598 67.2325 2.06054V8.67904C67.2325 8.79606 67.1893 8.90828 67.1125 8.99103C67.0357 9.07378 66.9315 9.12027 66.8228 9.12027ZM0.819309 8.2378H66.4132V2.06054C66.4132 1.75003 66.299 1.45216 66.0955 1.23218C65.892 1.0122 65.6159 0.888028 65.3276 0.88686H1.90489C1.6166 0.888028 1.34049 1.0122 1.13702 1.23218C0.93355 1.45216 0.819307 1.75003 0.819309 2.06054V8.2378Z" fill="#093F68"/>
<path d="M5.53454 5.82453C6.29925 5.82453 6.91917 5.15682 6.91917 4.33316C6.91917 3.5095 6.29925 2.8418 5.53454 2.8418C4.76983 2.8418 4.1499 3.5095 4.1499 4.33316C4.1499 5.15682 4.76983 5.82453 5.53454 5.82453Z" fill="#F56132"/>
<path d="M5.53452 6.2612C5.17965 6.2612 4.83274 6.14785 4.53767 5.93549C4.2426 5.72314 4.01262 5.42131 3.87682 5.06817C3.74101 4.71503 3.70548 4.32645 3.77471 3.95157C3.84394 3.57668 4.01483 3.23232 4.26577 2.96204C4.51671 2.69176 4.83642 2.5077 5.18447 2.43313C5.53253 2.35856 5.8933 2.39684 6.22117 2.54311C6.54903 2.68938 6.82926 2.93709 7.02642 3.2549C7.22358 3.57272 7.32881 3.94637 7.32881 4.3286C7.32773 4.8408 7.13834 5.33168 6.80208 5.69387C6.46582 6.05605 6.01007 6.26003 5.53452 6.2612ZM5.53452 3.27846C5.34169 3.27846 5.15319 3.34005 4.99285 3.45544C4.83252 3.57083 4.70755 3.73484 4.63376 3.92673C4.55997 4.11862 4.54066 4.32976 4.57828 4.53347C4.6159 4.73717 4.70876 4.92429 4.84511 5.07116C4.98146 5.21802 5.15519 5.31803 5.34431 5.35855C5.53344 5.39907 5.72948 5.37828 5.90763 5.29879C6.08578 5.21931 6.23806 5.08472 6.34519 4.91202C6.45232 4.73933 6.5095 4.5363 6.5095 4.3286C6.50735 4.05121 6.40381 3.78591 6.22131 3.59017C6.03882 3.39443 5.79207 3.28403 5.53452 3.28288V3.27846Z" fill="#093F68"/>
<path d="M11.1263 5.82453C11.891 5.82453 12.511 5.15682 12.511 4.33316C12.511 3.5095 11.891 2.8418 11.1263 2.8418C10.3616 2.8418 9.7417 3.5095 9.7417 4.33316C9.7417 5.15682 10.3616 5.82453 11.1263 5.82453Z" fill="#FFBC0E"/>
<path d="M11.126 6.26119C10.771 6.26207 10.4237 6.14946 10.1281 5.93764C9.83245 5.72581 9.60183 5.42429 9.4654 5.07123C9.32896 4.71817 9.29285 4.32945 9.36162 3.95427C9.43039 3.5791 9.60095 3.23433 9.85173 2.96361C10.1025 2.69289 10.4222 2.50838 10.7704 2.43346C11.1185 2.35853 11.4795 2.39654 11.8076 2.54268C12.1357 2.68883 12.4162 2.93653 12.6135 3.25444C12.8109 3.57235 12.9162 3.94617 12.9162 4.32859C12.9151 4.84003 12.7263 5.33025 12.3909 5.69231C12.0556 6.05436 11.6009 6.25886 11.126 6.26119ZM11.126 3.27846C10.933 3.27758 10.7441 3.33843 10.5832 3.45329C10.4224 3.56815 10.2968 3.73185 10.2223 3.92366C10.1479 4.11547 10.128 4.32675 10.1652 4.53075C10.2023 4.73474 10.2949 4.92227 10.4311 5.06958C10.5672 5.21688 10.741 5.31734 10.9302 5.35822C11.1194 5.39909 11.3157 5.37855 11.4941 5.2992C11.6725 5.21985 11.825 5.08526 11.9323 4.91247C12.0396 4.73968 12.0969 4.53648 12.0969 4.32859C12.0958 4.05161 11.9932 3.7863 11.8113 3.59044C11.6295 3.39458 11.3832 3.28403 11.126 3.28287V3.27846Z" fill="#093F68"/>
<path d="M16.7137 5.82453C17.4784 5.82453 18.0984 5.15682 18.0984 4.33316C18.0984 3.5095 17.4784 2.8418 16.7137 2.8418C15.949 2.8418 15.3291 3.5095 15.3291 4.33316C15.3291 5.15682 15.949 5.82453 16.7137 5.82453Z" fill="#70CC40"/>
<path d="M16.7137 6.2612C16.3588 6.2612 16.0119 6.14785 15.7169 5.93549C15.4218 5.72314 15.1918 5.42131 15.056 5.06817C14.9202 4.71503 14.8847 4.32645 14.9539 3.95157C15.0231 3.57668 15.194 3.23232 15.445 2.96204C15.6959 2.69176 16.0156 2.5077 16.3637 2.43313C16.7117 2.35856 17.0725 2.39684 17.4004 2.54311C17.7282 2.68938 18.0085 2.93709 18.2056 3.2549C18.4028 3.57272 18.508 3.94637 18.508 4.3286C18.5069 4.8408 18.3175 5.33168 17.9813 5.69387C17.645 6.05605 17.1893 6.26003 16.7137 6.2612ZM16.7137 3.27846C16.5209 3.27846 16.3324 3.34005 16.1721 3.45544C16.0117 3.57083 15.8868 3.73484 15.813 3.92673C15.7392 4.11862 15.7199 4.32976 15.7575 4.53347C15.7951 4.73717 15.888 4.92429 16.0243 5.07116C16.1607 5.21802 16.3344 5.31803 16.5235 5.35855C16.7126 5.39907 16.9087 5.37828 17.0868 5.29879C17.265 5.21931 17.4173 5.08472 17.5244 4.91202C17.6315 4.73933 17.6887 4.5363 17.6887 4.3286C17.6865 4.05121 17.583 3.78591 17.4005 3.59017C17.218 3.39443 16.9713 3.28403 16.7137 3.28288V3.27846Z" fill="#093F68"/>
<path d="M15.821 14.2877H4.52684C4.41819 14.2877 4.314 14.2413 4.23717 14.1585C4.16035 14.0758 4.11719 13.9635 4.11719 13.8465C4.11719 13.7295 4.16035 13.6173 4.23717 13.5345C4.314 13.4518 4.41819 13.4053 4.52684 13.4053H15.821C15.9297 13.4053 16.0339 13.4518 16.1107 13.5345C16.1875 13.6173 16.2307 13.7295 16.2307 13.8465C16.2307 13.9635 16.1875 14.0758 16.1107 14.1585C16.0339 14.2413 15.9297 14.2877 15.821 14.2877Z" fill="#DFEAEF"/>
<path d="M17.7464 19.7594H8.23827C8.12962 19.7594 8.02542 19.7129 7.9486 19.6302C7.87177 19.5474 7.82861 19.4352 7.82861 19.3182C7.82861 19.2012 7.87177 19.0889 7.9486 19.0062C8.02542 18.9234 8.12962 18.877 8.23827 18.877H17.7464C17.855 18.877 17.9592 18.9234 18.036 19.0062C18.1128 19.0889 18.156 19.2012 18.156 19.3182C18.156 19.4352 18.1128 19.5474 18.036 19.6302C17.9592 19.7129 17.855 19.7594 17.7464 19.7594Z" fill="#DFEAEF"/>
<path d="M19.0489 25.235H11.1426C11.0339 25.235 10.9297 25.1885 10.8529 25.1058C10.7761 25.023 10.7329 24.9108 10.7329 24.7938C10.7329 24.6767 10.7761 24.5645 10.8529 24.4818C10.9297 24.399 11.0339 24.3525 11.1426 24.3525H19.0489C19.1575 24.3525 19.2617 24.399 19.3386 24.4818C19.4154 24.5645 19.4585 24.6767 19.4585 24.7938C19.4585 24.9108 19.4154 25.023 19.3386 25.1058C19.2617 25.1885 19.1575 25.235 19.0489 25.235Z" fill="#DFEAEF"/>
<path d="M16.4681 30.7101H6.46434C6.35569 30.7101 6.2515 30.6636 6.17467 30.5809C6.09785 30.4981 6.05469 30.3859 6.05469 30.2689C6.05469 30.1518 6.09785 30.0396 6.17467 29.9569C6.2515 29.8741 6.35569 29.8276 6.46434 29.8276H16.4681C16.5768 29.8276 16.681 29.8741 16.7578 29.9569C16.8346 30.0396 16.8778 30.1518 16.8778 30.2689C16.8778 30.3859 16.8346 30.4981 16.7578 30.5809C16.681 30.6636 16.5768 30.7101 16.4681 30.7101Z" fill="#DFEAEF"/>
<path d="M13.7768 36.1818H4.52684C4.41819 36.1818 4.314 36.1353 4.23717 36.0525C4.16035 35.9698 4.11719 35.8576 4.11719 35.7405C4.11719 35.6235 4.16035 35.5113 4.23717 35.4286C4.314 35.3458 4.41819 35.2993 4.52684 35.2993H13.7768C13.8855 35.2993 13.9897 35.3458 14.0665 35.4286C14.1433 35.5113 14.1865 35.6235 14.1865 35.7405C14.1865 35.8576 14.1433 35.9698 14.0665 36.0525C13.9897 36.1353 13.8855 36.1818 13.7768 36.1818Z" fill="#DFEAEF"/>
<path d="M15.821 41.6569H7.62792C7.51927 41.6569 7.41507 41.6104 7.33825 41.5276C7.26142 41.4449 7.21826 41.3327 7.21826 41.2156C7.21826 41.0986 7.26142 40.9864 7.33825 40.9036C7.41507 40.8209 7.51927 40.7744 7.62792 40.7744H15.821C15.9297 40.7744 16.0339 40.8209 16.1107 40.9036C16.1875 40.9864 16.2307 41.0986 16.2307 41.2156C16.2307 41.3327 16.1875 41.4449 16.1107 41.5276C16.0339 41.6104 15.9297 41.6569 15.821 41.6569Z" fill="#DFEAEF"/>
<path d="M12.9985 47.1286H4.52684C4.41819 47.1286 4.314 47.0821 4.23717 46.9993C4.16035 46.9166 4.11719 46.8043 4.11719 46.6873C4.11719 46.5703 4.16035 46.4581 4.23717 46.3753C4.314 46.2926 4.41819 46.2461 4.52684 46.2461H12.9985C13.1071 46.2461 13.2113 46.2926 13.2882 46.3753C13.365 46.4581 13.4082 46.5703 13.4082 46.6873C13.4082 46.8043 13.365 46.9166 13.2882 46.9993C13.2113 47.0821 13.1071 47.1286 12.9985 47.1286Z" fill="#DFEAEF"/>
<path d="M15.821 52.591H7.62792C7.51927 52.591 7.41507 52.5445 7.33825 52.4617C7.26142 52.379 7.21826 52.2668 7.21826 52.1497C7.21826 52.0327 7.26142 51.9205 7.33825 51.8377C7.41507 51.755 7.51927 51.7085 7.62792 51.7085H15.821C15.9297 51.7085 16.0339 51.755 16.1107 51.8377C16.1875 51.9205 16.2307 52.0327 16.2307 52.1497C16.2307 52.2668 16.1875 52.379 16.1107 52.4617C16.0339 52.5445 15.9297 52.591 15.821 52.591Z" fill="#DFEAEF"/>
<path d="M34.3866 14.2873H27.5044C27.3957 14.2873 27.2915 14.2408 27.2147 14.158C27.1379 14.0753 27.0947 13.963 27.0947 13.846C27.0947 13.729 27.1379 13.6168 27.2147 13.534C27.2915 13.4513 27.3957 13.4048 27.5044 13.4048H34.3866C34.4952 13.4048 34.5994 13.4513 34.6762 13.534C34.7531 13.6168 34.7962 13.729 34.7962 13.846C34.7962 13.963 34.7531 14.0753 34.6762 14.158C34.5994 14.2408 34.4952 14.2873 34.3866 14.2873Z" fill="white"/>
<path d="M43.8905 19.7584H29.7656C29.657 19.7584 29.5528 19.712 29.4759 19.6292C29.3991 19.5465 29.356 19.4342 29.356 19.3172C29.356 19.2002 29.3991 19.088 29.4759 19.0052C29.5528 18.9225 29.657 18.876 29.7656 18.876H43.8905C43.9992 18.876 44.1033 18.9225 44.1802 19.0052C44.257 19.088 44.3002 19.2002 44.3002 19.3172C44.3002 19.4342 44.257 19.5465 44.1802 19.6292C44.1033 19.712 43.9992 19.7584 43.8905 19.7584Z" fill="#FFBC0E"/>
<path d="M40.3839 25.2345H29.7656C29.657 25.2345 29.5528 25.188 29.4759 25.1053C29.3991 25.0225 29.356 24.9103 29.356 24.7933C29.356 24.6763 29.3991 24.564 29.4759 24.4813C29.5528 24.3985 29.657 24.3521 29.7656 24.3521H40.3839C40.4925 24.3521 40.5967 24.3985 40.6735 24.4813C40.7504 24.564 40.7935 24.6763 40.7935 24.7933C40.7935 24.9103 40.7504 25.0225 40.6735 25.1053C40.5967 25.188 40.4925 25.2345 40.3839 25.2345Z" fill="#FFBC0E"/>
<path d="M34.7797 30.7096H28.6841C28.5754 30.7096 28.4712 30.6631 28.3944 30.5804C28.3176 30.4976 28.2744 30.3854 28.2744 30.2684C28.2744 30.1514 28.3176 30.0391 28.3944 29.9564C28.4712 29.8736 28.5754 29.8271 28.6841 29.8271H34.7797C34.8884 29.8271 34.9926 29.8736 35.0694 29.9564C35.1462 30.0391 35.1894 30.1514 35.1894 30.2684C35.1894 30.3854 35.1462 30.4976 35.0694 30.5804C34.9926 30.6631 34.8884 30.7096 34.7797 30.7096Z" fill="white"/>
<path d="M37.2049 36.1813H30.3227C30.2141 36.1813 30.1099 36.1348 30.0331 36.0521C29.9562 35.9693 29.9131 35.8571 29.9131 35.7401C29.9131 35.623 29.9562 35.5108 30.0331 35.4281C30.1099 35.3453 30.2141 35.2988 30.3227 35.2988H37.2049C37.3136 35.2988 37.4178 35.3453 37.4946 35.4281C37.5714 35.5108 37.6146 35.623 37.6146 35.7401C37.6146 35.8571 37.5714 35.9693 37.4946 36.0521C37.4178 36.1348 37.3136 36.1813 37.2049 36.1813Z" fill="#F56132"/>
<path d="M40.7114 41.6574H30.0849C29.9763 41.6574 29.8721 41.6109 29.7953 41.5281C29.7185 41.4454 29.6753 41.3332 29.6753 41.2161C29.6753 41.0991 29.7185 40.9869 29.7953 40.9041C29.8721 40.8214 29.9763 40.7749 30.0849 40.7749H40.7114C40.82 40.7749 40.9242 40.8214 41.0011 40.9041C41.0779 40.9869 41.121 41.0991 41.121 41.2161C41.121 41.3332 41.0779 41.4454 41.0011 41.5281C40.9242 41.6109 40.82 41.6574 40.7114 41.6574Z" fill="white"/>
<path d="M32.666 47.1276H27.5044C27.3957 47.1276 27.2915 47.0811 27.2147 46.9983C27.1379 46.9156 27.0947 46.8034 27.0947 46.6864C27.0947 46.5693 27.1379 46.4571 27.2147 46.3744C27.2915 46.2916 27.3957 46.2451 27.5044 46.2451H32.666C32.7747 46.2451 32.8789 46.2916 32.9557 46.3744C33.0325 46.4571 33.0757 46.5693 33.0757 46.6864C33.0757 46.8034 33.0325 46.9156 32.9557 46.9983C32.8789 47.0811 32.7747 47.1276 32.666 47.1276Z" fill="white"/>
<path d="M40.7112 52.5905H29.4048C29.2961 52.5905 29.1919 52.544 29.1151 52.4612C29.0383 52.3785 28.9951 52.2663 28.9951 52.1492C28.9951 52.0322 29.0383 51.92 29.1151 51.8372C29.1919 51.7545 29.2961 51.708 29.4048 51.708H40.7112C40.8199 51.708 40.9241 51.7545 41.0009 51.8372C41.0777 51.92 41.1209 52.0322 41.1209 52.1492C41.1209 52.2663 41.0777 52.3785 41.0009 52.4612C40.9241 52.544 40.8199 52.5905 40.7112 52.5905Z" fill="#70CC40"/>
<path d="M51.5426 52.5905H44.1196C44.011 52.5905 43.9068 52.544 43.8299 52.4612C43.7531 52.3785 43.71 52.2663 43.71 52.1492C43.71 52.0322 43.7531 51.92 43.8299 51.8372C43.9068 51.7545 44.011 51.708 44.1196 51.708H51.5426C51.6512 51.708 51.7554 51.7545 51.8322 51.8372C51.909 51.92 51.9522 52.0322 51.9522 52.1492C51.9522 52.2663 51.909 52.3785 51.8322 52.4612C51.7554 52.544 51.6512 52.5905 51.5426 52.5905Z" fill="#FFBC0E"/>
<path d="M49.1342 25.2345H43.8906C43.782 25.2345 43.6778 25.188 43.6009 25.1053C43.5241 25.0225 43.481 24.9103 43.481 24.7933C43.481 24.6763 43.5241 24.564 43.6009 24.4813C43.6778 24.3985 43.782 24.3521 43.8906 24.3521H49.1342C49.2428 24.3521 49.347 24.3985 49.4239 24.4813C49.5007 24.564 49.5438 24.6763 49.5438 24.7933C49.5438 24.9103 49.5007 25.0225 49.4239 25.1053C49.347 25.188 49.2428 25.2345 49.1342 25.2345Z" fill="white"/>
<path d="M56.6102 19.7584H46.5122C46.4035 19.7584 46.2993 19.712 46.2225 19.6292C46.1457 19.5465 46.1025 19.4342 46.1025 19.3172C46.1025 19.2002 46.1457 19.088 46.2225 19.0052C46.2993 18.9225 46.4035 18.876 46.5122 18.876H56.6102C56.7188 18.876 56.823 18.9225 56.8998 19.0052C56.9767 19.088 57.0198 19.2002 57.0198 19.3172C57.0198 19.4342 56.9767 19.5465 56.8998 19.6292C56.823 19.712 56.7188 19.7584 56.6102 19.7584Z" fill="#68E1FD"/>
<path d="M54.9389 25.2345H51.9853C51.8767 25.2345 51.7725 25.188 51.6957 25.1053C51.6188 25.0225 51.5757 24.9103 51.5757 24.7933C51.5757 24.6763 51.6188 24.564 51.6957 24.4813C51.7725 24.3985 51.8767 24.3521 51.9853 24.3521H54.9389C55.0476 24.3521 55.1518 24.3985 55.2286 24.4813C55.3054 24.564 55.3486 24.6763 55.3486 24.7933C55.3486 24.9103 55.3054 25.0225 55.2286 25.1053C55.1518 25.188 55.0476 25.2345 54.9389 25.2345Z" fill="#F56132"/>
<path d="M42.1863 36.1813H39.2368C39.1282 36.1813 39.024 36.1348 38.9471 36.0521C38.8703 35.9693 38.8271 35.8571 38.8271 35.7401C38.8271 35.623 38.8703 35.5108 38.9471 35.4281C39.024 35.3453 39.1282 35.2988 39.2368 35.2988H42.1863C42.295 35.2988 42.3992 35.3453 42.476 35.4281C42.5528 35.5108 42.596 35.623 42.596 35.7401C42.596 35.8571 42.5528 35.9693 42.476 36.0521C42.3992 36.1348 42.295 36.1813 42.1863 36.1813Z" fill="#F56132"/>
<path d="M56.6101 36.1813H44.6113C44.5027 36.1813 44.3985 36.1348 44.3216 36.0521C44.2448 35.9693 44.2017 35.8571 44.2017 35.7401C44.2017 35.623 44.2448 35.5108 44.3216 35.4281C44.3985 35.3453 44.5027 35.2988 44.6113 35.2988H56.6101C56.7187 35.2988 56.8229 35.3453 56.8998 35.4281C56.9766 35.5108 57.0197 35.623 57.0197 35.7401C57.0197 35.8571 56.9766 35.9693 56.8998 36.0521C56.8229 36.1348 56.7187 36.1813 56.6101 36.1813Z" fill="#FFBC0E"/>
<path d="M46.5124 41.6574H43.8906C43.782 41.6574 43.6778 41.6109 43.6009 41.5281C43.5241 41.4454 43.481 41.3332 43.481 41.2161C43.481 41.0991 43.5241 40.9869 43.6009 40.9041C43.6778 40.8214 43.782 40.7749 43.8906 40.7749H46.5124C46.621 40.7749 46.7252 40.8214 46.8021 40.9041C46.8789 40.9869 46.9221 41.0991 46.9221 41.2161C46.9221 41.3332 46.8789 41.4454 46.8021 41.5281C46.7252 41.6109 46.621 41.6574 46.5124 41.6574Z" fill="#68E1FD"/>
<path d="M56.6103 52.5905H54.939C54.8303 52.5905 54.7261 52.544 54.6493 52.4612C54.5725 52.3785 54.5293 52.2663 54.5293 52.1492C54.5293 52.0322 54.5725 51.92 54.6493 51.8372C54.7261 51.7545 54.8303 51.708 54.939 51.708H56.6103C56.719 51.708 56.8232 51.7545 56.9 51.8372C56.9768 51.92 57.02 52.0322 57.02 52.1492C57.02 52.2663 56.9768 52.3785 56.9 52.4612C56.8232 52.544 56.719 52.5905 56.6103 52.5905Z" fill="white"/>
</svg>
