<svg width="53" height="73" viewBox="0 0 53 73" fill="none" xmlns="http://www.w3.org/2000/svg">
<path d="M17.2249 42.2405C16.6264 41.5999 15.799 41.2228 14.9238 41.1917C14.0485 41.1606 13.1965 41.4781 12.5543 42.0745C8.63783 45.5302 5.49478 49.7762 3.33122 54.5339C1.16766 59.2917 0.0324385 64.4538 0 69.6818C0 70.5619 0.348992 71.4058 0.970202 72.0281C1.59141 72.6504 2.43395 73 3.31247 73C4.191 73 5.03354 72.6504 5.65475 72.0281C6.27596 71.4058 6.62495 70.5619 6.62495 69.6818C6.64769 65.3625 7.59021 61.0977 9.38957 57.1724C11.1889 53.247 13.8037 49.7514 17.0592 46.9191C17.6987 46.3196 18.0751 45.4908 18.1061 44.614C18.1372 43.7372 17.8203 42.8838 17.2249 42.2405ZM50.9127 57.6368C49.6788 54.0605 47.8902 50.7011 45.6128 47.6823C42.205 43.2597 38.0447 39.4742 33.3235 36.5C40.7434 31.755 52.9996 21.2364 52.9996 3.31818C52.9996 2.43815 52.6506 1.59415 52.0294 0.971873C51.4082 0.349593 50.5656 0 49.6871 0C48.8086 0 47.966 0.349593 47.3448 0.971873C46.7236 1.59415 46.3746 2.43815 46.3746 3.31818C46.3746 21.2364 31.1704 30.4277 26.4998 32.8168C23.2843 31.1001 20.2916 28.9938 17.5892 26.5455H26.4998C27.3783 26.5455 28.2209 26.1959 28.8421 25.5736C29.4633 24.9513 29.8123 24.1073 29.8123 23.2273C29.8123 22.3472 29.4633 21.5032 28.8421 20.881C28.2209 20.2587 27.3783 19.9091 26.4998 19.9091H11.7593C10.3952 17.837 9.28315 15.6091 8.44681 13.2727H36.4372C37.3157 13.2727 38.1583 12.9231 38.7795 12.3009C39.4007 11.6786 39.7497 10.8346 39.7497 9.95455C39.7497 9.07451 39.4007 8.23052 38.7795 7.60824C38.1583 6.98596 37.3157 6.63636 36.4372 6.63636H6.8237C6.6895 5.53544 6.62313 4.42728 6.62495 3.31818C6.62495 2.43815 6.27596 1.59415 5.65475 0.971873C5.03354 0.349593 4.191 0 3.31247 0C2.43395 0 1.59141 0.349593 0.970202 0.971873C0.348992 1.59415 0 2.43815 0 3.31818C0 28.4368 24.1811 39.1214 25.2079 39.5527C28.9344 41.3464 32.382 43.6711 35.4435 46.4545H26.4998C25.6213 46.4545 24.7787 46.8041 24.1575 47.4264C23.5363 48.0487 23.1873 48.8927 23.1873 49.7727C23.1873 50.6528 23.5363 51.4968 24.1575 52.119C24.7787 52.7413 25.6213 53.0909 26.4998 53.0909H41.1741C42.5472 55.1577 43.6599 57.3868 44.4865 59.7273H16.5624C15.6838 59.7273 14.8413 60.0769 14.2201 60.6991C13.5989 61.3214 13.2499 62.1654 13.2499 63.0455C13.2499 63.9255 13.5989 64.7695 14.2201 65.3918C14.8413 66.014 15.6838 66.3636 16.5624 66.3636H46.1759C46.3091 67.4646 46.3755 68.5727 46.3746 69.6818C46.3746 70.5619 46.7236 71.4058 47.3448 72.0281C47.966 72.6504 48.8086 73 49.6871 73C50.5656 73 51.4082 72.6504 52.0294 72.0281C52.6506 71.4058 52.9996 70.5619 52.9996 69.6818C53.0115 67.2407 52.7672 64.805 52.2708 62.415C51.9481 60.7881 51.4939 59.1901 50.9127 57.6368Z" fill="white"/>
</svg>
