<svg width="32" height="32" viewBox="0 0 32 32" fill="none" xmlns="http://www.w3.org/2000/svg">
<g clip-path="url(#clip0_244_4699)">
<path fill-rule="evenodd" clip-rule="evenodd" d="M16.25 9.549C16.089 9.732 16 9.967 16 10.211V20.789C16 21.033 16.089 21.268 16.25 21.451C17.9 23.321 20.313 24.5 23 24.5C27.967 24.5 32 20.467 32 15.5C32 10.533 27.967 6.5 23 6.5C20.313 6.5 17.9 7.679 16.25 9.549ZM18 20.397C19.271 21.694 21.042 22.5 23 22.5C26.863 22.5 30 19.363 30 15.5C30 11.637 26.863 8.5 23 8.5C21.042 8.5 19.271 9.306 18 10.603V20.397Z" fill="white"/>
<path fill-rule="evenodd" clip-rule="evenodd" d="M15.0003 32.0038C15.796 32.0038 16.5587 31.6906 17.1219 31.1239C17.684 30.5639 18.0008 29.7972 17.9998 29.0039C17.9998 23.0772 17.9998 6.00387 17.9998 6.00387C17.9998 5.7372 17.8952 5.48385 17.7075 5.29718L12.7069 0.29718C12.5203 0.110514 12.2653 0.00390625 12.0008 0.00390625H3.00024C2.2045 0.00390625 1.44183 0.317163 0.878632 0.88383C0.316497 1.44383 -0.00030344 2.21055 -0.00030344 3.00389C0.00076323 8.45722 0.000762644 23.5505 0.000762644 29.0039C-0.000304026 30.6639 1.3437 32.0038 3.00024 32.0038H15.0003ZM11.5859 2.00383H3.00024C2.73464 2.00383 2.48077 2.11054 2.29304 2.2972C2.1053 2.48387 1.9997 2.73722 1.9997 3.00389C1.9997 8.45722 1.9997 23.5505 1.9997 29.0039C1.9997 29.5572 2.4477 30.0039 3.00024 30.0039H15.0003C15.2659 30.0039 15.5197 29.8972 15.7075 29.7105C15.8952 29.5239 16.0008 29.2705 15.9997 29.0039L16.0008 6.41718L11.5859 2.00383Z" fill="white"/>
<path fill-rule="evenodd" clip-rule="evenodd" d="M6 15V9.00001C6 8.44801 6.448 8 7 8V7C7 8 7 8 7 8C7.552 8 8 8.44801 8 9.00001C8 11.3692 8 15 8 15C8 15.552 8.448 16 9 16C9.552 16 10 15.552 10 15C10 15 10 11.3692 10 9.00001C10 7.34286 8.657 6 7 6V7C7 6 7 6 7 6C5.343 6 4 7.34286 4 9.00001C4 11.3692 4 15 4 15C4 15.552 4.448 16 5 16C5.552 16 6 15.552 6 15Z" fill="white"/>
<path fill-rule="evenodd" clip-rule="evenodd" d="M5 12H8.5C9.052 12 9.5 11.552 9.5 11C9.5 10.448 9.052 10 8.5 10H5C4.448 10 4 10.448 4 11C4 11.552 4.448 12 5 12Z" fill="white"/>
<path fill-rule="evenodd" clip-rule="evenodd" d="M4.99976 20H12.9998C13.5518 20 13.9998 19.552 13.9998 19C13.9998 18.448 13.5518 18 12.9998 18H4.99976C4.44776 18 3.99976 18.448 3.99976 19C3.99976 19.552 4.44776 20 4.99976 20Z" fill="white"/>
<path fill-rule="evenodd" clip-rule="evenodd" d="M4.99976 24H12.9998C13.5518 24 13.9998 23.552 13.9998 23C13.9998 22.448 13.5518 22 12.9998 22H4.99976C4.44776 22 3.99976 22.448 3.99976 23C3.99976 23.552 4.44776 24 4.99976 24Z" fill="white"/>
<path fill-rule="evenodd" clip-rule="evenodd" d="M26.625 16.7812C26.862 16.5912 27 16.3042 27 16.0002C27 15.6962 26.862 15.4092 26.625 15.2192L21.625 11.2192C21.325 10.9792 20.913 10.9322 20.567 11.0992C20.22 11.2652 20 11.6162 20 12.0002V20.0002C20 20.3842 20.22 20.7352 20.567 20.9012C20.913 21.0682 21.325 21.0212 21.625 20.7812L26.625 16.7812ZM17 7.00019C17.404 7.00019 17.769 6.75618 17.924 6.38318C18.079 6.00918 17.993 5.57919 17.707 5.29319L12.707 0.293186C12.421 0.0071857 11.991 -0.0788095 11.617 0.0761905C11.244 0.23119 11 0.596186 11 1.00019V6.00019C11 6.55219 11.448 7.00019 12 7.00019H17Z" fill="white"/>
</g>
<defs>
<clipPath id="clip0_244_4699">
<rect width="32" height="32" fill="white"/>
</clipPath>
</defs>
</svg>
