<svg width="35" height="35" viewBox="0 0 35 35" fill="none" xmlns="http://www.w3.org/2000/svg">
<path d="M35 34.9989V21.4593C35 14.2044 31.2988 10.8286 26.3638 10.8286C22.3814 10.8286 20.5964 13.1207 19.6022 14.7296V11.3836H12.0991C12.1986 13.6002 12.0991 34.9989 12.0991 34.9989H19.6022V21.8106C19.6022 21.1069 19.6503 20.4008 19.8494 19.8973C20.3908 18.4864 21.6256 17.0263 23.6972 17.0263C26.413 17.0263 27.498 19.1913 27.498 22.3656V35L35 34.9989ZM4.19453 8.16011C6.80969 8.16011 8.44047 6.34522 8.44047 4.07834C8.39234 1.76224 6.81078 0 4.24484 0C1.67891 0 0 1.7611 0 4.07834C0 6.34522 1.62859 8.16011 4.1475 8.16011H4.19453ZM7.94609 34.9989V11.3836H0.444062V34.9989H7.94609Z" fill="#EB7100"/>
</svg>
