<svg width="27" height="26" viewBox="0 0 27 26" fill="none" xmlns="http://www.w3.org/2000/svg">
<path d="M25.132 0.84975C24 -0.28225 22.023 -0.28425 20.889 0.84975L18.768 2.97075L18.758 2.98075H4C1.794 2.98075 0 4.77475 0 6.98075V21.9807C0 24.1867 1.794 25.9807 4 25.9807H19C21.206 25.9807 23 24.1867 23 21.9807V7.22275L23.01 7.21275L25.131 5.09175C25.697 4.52575 26.01 3.77175 26.01 2.97075C26.01 2.16875 25.697 1.41475 25.132 0.84975ZM14.031 13.3637L12.263 13.7177L12.617 11.9497L20.181 4.38575L21.595 5.79975L14.031 13.3637ZM4 4.98075H16.758L12.758 8.98075H2V6.98075C2 5.87775 2.898 4.98075 4 4.98075ZM19 23.9807H4C2.897 23.9807 2 23.0837 2 21.9807V10.9808H10.818C10.7705 11.0682 10.7361 11.1623 10.716 11.2598L10.009 14.7948C9.9774 14.956 9.98594 15.1225 10.0339 15.2797C10.0818 15.4368 10.1676 15.5798 10.2838 15.696C10.4 15.8122 10.5429 15.898 10.7001 15.9459C10.8572 15.9938 11.0238 16.0023 11.185 15.9708L14.72 15.2638C14.9133 15.2246 15.091 15.1297 15.231 14.9907L19.242 10.9797H21V21.9797C20.9995 22.5101 20.7886 23.0186 20.4137 23.3937C20.0388 23.7689 19.5304 23.98 19 23.9807ZM23.717 3.67775L23.01 4.38475L21.596 2.97075L22.303 2.26375C22.4935 2.08185 22.7468 1.98044 23.0102 1.98063C23.2736 1.98081 23.5268 2.08258 23.717 2.26475C23.81 2.35739 23.8839 2.46748 23.9342 2.58872C23.9846 2.70997 24.0105 2.83996 24.0105 2.97125C24.0105 3.10254 23.9846 3.23253 23.9342 3.35378C23.8839 3.47502 23.81 3.58511 23.717 3.67775Z" fill="white"/>
</svg>
