<svg width="33" height="23" viewBox="0 0 33 23" fill="none" xmlns="http://www.w3.org/2000/svg">
<path d="M3.03186 21.1131C3.35606 21.2702 3.7199 21.3583 4.10432 21.3583H28.7303C29.1147 21.3583 29.4785 21.2702 29.8027 21.1131L20.1024 11.9833L16.9391 14.5884C16.636 14.838 16.1986 14.838 15.8955 14.5884L12.7322 11.9833L3.03186 21.1131ZM1.87665 19.9467C1.88425 19.939 1.89204 19.9314 1.90001 19.9239L11.4547 10.9312L1.94077 3.09625C1.92002 3.07916 1.90033 3.06127 1.8817 3.04266C1.72787 3.36412 1.64173 3.72416 1.64173 4.10432V18.8957C1.64173 19.2717 1.72599 19.628 1.87665 19.9467ZM30.9579 19.9467C31.1086 19.628 31.1929 19.2717 31.1929 18.8957V4.10432C31.1929 3.72417 31.1067 3.36413 30.9529 3.04266C30.9343 3.06127 30.9146 3.07916 30.8938 3.09625L21.3799 10.9312L30.9346 19.9239C30.9426 19.9314 30.9503 19.939 30.9579 19.9467ZM29.7883 1.87994C29.4677 1.72721 29.109 1.64173 28.7303 1.64173H4.10432C3.72562 1.64173 3.36688 1.72721 3.04635 1.87994L16.4173 12.8913L29.7883 1.87994ZM4.10432 0H28.7303C30.997 0 32.8346 1.83757 32.8346 4.10432V18.8957C32.8346 21.1624 30.997 23 28.7303 23H4.10432C1.83757 23 0 21.1624 0 18.8957V4.10432C0 1.83757 1.83757 0 4.10432 0Z" fill="#F3892C"/>
</svg>
