<svg width="28" height="28" viewBox="0 0 28 28" fill="none" xmlns="http://www.w3.org/2000/svg">
<path fill-rule="evenodd" clip-rule="evenodd" d="M14.0009 14C10.8971 14 8.37432 11.4884 8.37432 8.39997C8.37432 5.31157 10.8971 2.79998 14.0009 2.79998C17.1047 2.79998 19.6275 5.31157 19.6275 8.39997C19.6275 11.4884 17.1047 14 14.0009 14ZM19.2873 14.9421C20.4441 14.021 21.3361 12.8099 21.8727 11.432C22.4093 10.0542 22.5713 8.5587 22.3421 7.0979C21.7863 3.4257 18.7175 0.487167 15.0117 0.0587675C9.89892 -0.533432 5.56172 3.42858 5.56172 8.39997C5.56172 11.046 6.79372 13.4035 8.71452 14.9421C3.99372 16.7075 0.546923 20.8529 0.00652341 26.4473C-0.012371 26.6436 0.00988903 26.8416 0.0718706 27.0287C0.133852 27.2159 0.234197 27.388 0.366489 27.5341C0.49878 27.6802 0.660105 27.797 0.840155 27.8772C1.0202 27.9575 1.21502 27.9993 1.41213 28C1.75764 28.0027 2.09172 27.8764 2.3489 27.6457C2.60607 27.4149 2.76778 27.0964 2.80232 26.7526C3.36652 20.5044 8.17272 16.8 14.0009 16.8C19.8291 16.8 24.6353 20.5044 25.1995 26.7526C25.234 27.0964 25.3958 27.4149 25.6529 27.6457C25.9101 27.8764 26.2442 28.0027 26.5897 28C27.4241 28 28.0737 27.2747 27.9939 26.4473C27.4549 20.8529 24.0081 16.7075 19.2859 14.9421" fill="#F3892C"/>
</svg>
